M48
; DRILL file {KiCad 8.0.3} date 2025-01-29T18:19:54+0100
; FORMAT={-:-/ absolute / metric / decimal}
; #@! TF.CreationDate,2025-01-29T18:19:54+01:00
; #@! TF.GenerationSoftware,Kicad,Pcbnew,8.0.3
; #@! TF.FileFunction,Plated,1,2,PTH
FMAT,2
METRIC
; #@! TA.AperFunction,Plated,PTH,ViaDrill
T1C0.800
; #@! TA.AperFunction,Plated,PTH,ComponentDrill
T2C0.800
; #@! TA.AperFunction,Plated,PTH,ComponentDrill
T3C1.000
%
G90
G05
T1
X122.0Y-72.0
X126.0Y-81.0
X138.0Y-56.0
X139.0Y-61.0
X139.64Y-73.36
X141.5Y-49.5
X142.84Y-48.16
X144.0Y-75.0
X146.0Y-57.0
X146.0Y-94.0
X152.0Y-75.0
X155.0Y-73.0
X156.0Y-59.0
X158.0Y-112.0
X159.0Y-99.0
X161.0Y-78.0
X162.0Y-76.0
X162.0Y-89.0
X162.0Y-99.0
X164.0Y-85.0
X164.0Y-96.0
X166.0Y-83.0
X166.0Y-102.0
X168.0Y-98.0
X170.0Y-102.0
X171.5Y-48.5
X172.0Y-83.0
X175.0Y-98.0
X176.0Y-44.0
X176.0Y-92.0
X178.0Y-92.0
X182.8Y-46.2
X183.3Y-55.0
X184.0Y-83.0
X184.0Y-123.0
X187.0Y-53.0
X190.0Y-75.0
X198.0Y-55.0
X198.347Y-99.652
X204.0Y-113.0
X205.0Y-66.0
X206.0Y-118.0
T2
X133.0Y-88.0
X133.19Y-101.0
X133.19Y-116.0
X133.38Y-95.0
X133.38Y-109.0
X140.62Y-88.0
X140.81Y-101.0
X140.81Y-116.0
X141.0Y-95.0
X141.0Y-109.0
X149.2Y-91.3
X149.2Y-93.84
X149.2Y-96.38
X149.2Y-98.92
X149.2Y-101.46
X149.2Y-104.0
X149.2Y-106.54
X149.2Y-109.08
X156.82Y-91.3
X156.82Y-93.84
X156.82Y-96.38
X156.82Y-98.92
X156.82Y-101.46
X156.82Y-104.0
X156.82Y-106.54
X156.82Y-109.08
X183.3Y-58.38
X183.3Y-66.0
X185.84Y-58.38
X185.84Y-66.0
X188.38Y-58.38
X188.38Y-66.0
X190.92Y-58.38
X190.92Y-66.0
X193.46Y-58.38
X193.46Y-66.0
X194.2Y-103.125
X194.2Y-105.665
X194.2Y-108.205
X194.2Y-110.745
X194.2Y-113.285
X194.2Y-115.825
X194.2Y-118.365
X194.2Y-120.905
X196.0Y-58.38
X196.0Y-66.0
X198.54Y-58.38
X198.54Y-66.0
X201.08Y-58.38
X201.08Y-66.0
X201.82Y-103.125
X201.82Y-105.665
X201.82Y-108.205
X201.82Y-110.745
X201.82Y-113.285
X201.82Y-115.825
X201.82Y-118.365
X201.82Y-120.905
T3
X119.98Y-44.7
X119.98Y-70.0
X122.52Y-44.7
X122.52Y-70.0
X124.3Y-78.0
X125.06Y-44.7
X125.06Y-70.0
X126.84Y-78.0
X127.6Y-44.7
X127.6Y-70.0
X128.375Y-87.735
X128.375Y-90.275
X128.375Y-94.735
X128.375Y-97.275
X128.375Y-101.735
X128.375Y-104.275
X128.375Y-108.735
X128.375Y-111.275
X128.375Y-115.735
X128.375Y-118.275
X129.38Y-78.0
X130.14Y-44.7
X130.14Y-70.0
X131.92Y-78.0
X132.68Y-44.7
X132.68Y-70.0
X134.46Y-78.0
X134.46Y-123.0
X135.22Y-44.7
X135.22Y-70.0
X137.0Y-78.0
X137.0Y-123.0
X137.76Y-44.7
X137.76Y-70.0
X139.54Y-78.0
X140.3Y-44.7
X140.3Y-70.0
X142.08Y-78.0
X142.84Y-44.7
X142.84Y-70.0
X144.62Y-78.0
X145.38Y-44.7
X145.38Y-70.0
X145.445Y-115.625
X147.16Y-78.0
X147.92Y-44.7
X147.92Y-70.0
X147.985Y-115.625
X149.7Y-78.0
X150.46Y-44.7
X150.46Y-70.0
X150.525Y-115.625
X152.24Y-78.0
X153.0Y-44.7
X153.0Y-70.0
X154.78Y-78.0
X155.445Y-115.625
X155.54Y-44.7
X155.54Y-70.0
X157.32Y-78.0
X157.985Y-115.625
X158.08Y-44.7
X158.08Y-70.0
X160.525Y-115.625
X160.62Y-44.7
X160.62Y-70.0
X163.16Y-44.7
X163.16Y-70.0
X165.7Y-44.7
X165.7Y-70.0
X187.0Y-97.65
X187.0Y-100.19
X187.0Y-102.73
X187.0Y-105.27
X187.0Y-107.81
X187.0Y-110.35
X187.46Y-48.0
X188.38Y-70.0
X190.0Y-48.0
X190.92Y-70.0
X192.54Y-48.0
X193.46Y-70.0
X195.08Y-48.0
X196.0Y-70.0
X197.62Y-48.0
X197.625Y-74.46
X197.625Y-77.0
X197.625Y-79.54
X197.625Y-82.08
X197.625Y-84.62
X197.625Y-87.16
X198.54Y-70.0
M30
