M48
; DRILL file {KiCad 8.0.3} date 2025-02-04T16:17:44+0100
; FORMAT={-:-/ absolute / metric / decimal}
; #@! TF.CreationDate,2025-02-04T16:17:44+01:00
; #@! TF.GenerationSoftware,Kicad,Pcbnew,8.0.3
; #@! TF.FileFunction,Plated,1,2,PTH
FMAT,2
METRIC
; #@! TA.AperFunction,Plated,PTH,ViaDrill
T1C0.800
; #@! TA.AperFunction,Plated,PTH,ComponentDrill
T2C0.800
; #@! TA.AperFunction,Plated,PTH,ViaDrill
T3C1.000
; #@! TA.AperFunction,Plated,PTH,ComponentDrill
T4C1.000
%
G90
G05
T1
X146.0Y-94.0
X158.0Y-112.0
X159.0Y-99.0
X162.0Y-89.0
X162.0Y-99.0
X164.0Y-96.0
X166.0Y-102.0
X168.0Y-98.0
X170.0Y-102.0
X175.0Y-98.0
X176.0Y-92.0
X178.0Y-92.0
X182.8Y-46.2
X183.3Y-55.0
X184.0Y-81.0
X184.0Y-123.0
X187.0Y-53.0
X190.0Y-75.0
X198.0Y-55.0
X198.347Y-99.652
X204.0Y-113.0
X205.0Y-66.0
X206.0Y-118.0
T2
X133.0Y-88.0
X133.19Y-101.0
X133.19Y-116.0
X133.38Y-95.0
X133.38Y-109.0
X140.62Y-88.0
X140.81Y-101.0
X140.81Y-116.0
X141.0Y-95.0
X141.0Y-109.0
X149.2Y-91.3
X149.2Y-93.84
X149.2Y-96.38
X149.2Y-98.92
X149.2Y-101.46
X149.2Y-104.0
X149.2Y-106.54
X149.2Y-109.08
X156.82Y-91.3
X156.82Y-93.84
X156.82Y-96.38
X156.82Y-98.92
X156.82Y-101.46
X156.82Y-104.0
X156.82Y-106.54
X156.82Y-109.08
X183.3Y-58.38
X183.3Y-66.0
X185.84Y-58.38
X185.84Y-66.0
X188.38Y-58.38
X188.38Y-66.0
X190.92Y-58.38
X190.92Y-66.0
X193.46Y-58.38
X193.46Y-66.0
X194.2Y-103.125
X194.2Y-105.665
X194.2Y-108.205
X194.2Y-110.745
X194.2Y-113.285
X194.2Y-115.825
X194.2Y-118.365
X194.2Y-120.905
X196.0Y-58.38
X196.0Y-66.0
X198.54Y-58.38
X198.54Y-66.0
X201.08Y-58.38
X201.08Y-66.0
X201.82Y-103.125
X201.82Y-105.665
X201.82Y-108.205
X201.82Y-110.745
X201.82Y-113.285
X201.82Y-115.825
X201.82Y-118.365
X201.82Y-120.905
T3
X123.0Y-47.0
X126.0Y-40.0
X126.0Y-64.0
X131.0Y-38.0
X131.0Y-43.0
X133.0Y-98.0
X136.0Y-38.0
X136.0Y-41.0
X137.0Y-78.0
X139.0Y-34.0
X141.0Y-64.0
X141.0Y-70.0
X142.0Y-47.0
X149.0Y-47.0
X149.0Y-70.0
X155.0Y-44.0
X155.0Y-79.0
X159.0Y-60.0
X162.189Y-83.202
X164.0Y-64.0
X165.0Y-54.0
X171.0Y-90.0
X173.812Y-46.227
X182.0Y-44.0
X186.0Y-85.0
X186.0Y-92.0
T4
X120.14Y-49.0
X120.14Y-74.3
X122.68Y-49.0
X122.68Y-74.3
X123.14Y-36.0
X125.22Y-49.0
X125.22Y-74.3
X125.68Y-36.0
X127.76Y-49.0
X127.76Y-74.3
X128.22Y-36.0
X128.375Y-87.735
X128.375Y-90.275
X128.375Y-94.735
X128.375Y-97.275
X128.375Y-101.735
X128.375Y-104.275
X128.375Y-108.735
X128.375Y-111.275
X128.375Y-115.735
X128.375Y-118.275
X130.3Y-49.0
X130.3Y-74.3
X130.76Y-36.0
X132.84Y-49.0
X132.84Y-74.3
X133.3Y-36.0
X134.46Y-123.0
X135.38Y-49.0
X135.38Y-74.3
X135.84Y-36.0
X137.0Y-123.0
X137.92Y-49.0
X137.92Y-74.3
X138.38Y-36.0
X140.46Y-49.0
X140.46Y-74.3
X140.92Y-36.0
X143.0Y-49.0
X143.0Y-74.3
X143.46Y-36.0
X145.445Y-115.625
X145.54Y-49.0
X145.54Y-74.3
X146.0Y-36.0
X147.985Y-115.625
X148.08Y-49.0
X148.08Y-74.3
X148.54Y-36.0
X150.525Y-115.625
X150.62Y-49.0
X150.62Y-74.3
X151.08Y-36.0
X153.16Y-49.0
X153.16Y-74.3
X153.62Y-36.0
X155.445Y-115.625
X155.7Y-49.0
X155.7Y-74.3
X156.16Y-36.0
X157.985Y-115.625
X158.24Y-49.0
X158.24Y-74.3
X160.525Y-115.625
X160.78Y-49.0
X160.78Y-74.3
X163.32Y-49.0
X163.32Y-74.3
X165.86Y-49.0
X165.86Y-74.3
X187.0Y-97.65
X187.0Y-100.19
X187.0Y-102.73
X187.0Y-105.27
X187.0Y-107.81
X187.0Y-110.35
X187.46Y-48.0
X188.38Y-70.0
X190.0Y-48.0
X190.92Y-70.0
X192.54Y-48.0
X193.46Y-70.0
X195.08Y-48.0
X196.0Y-70.0
X197.62Y-48.0
X197.625Y-74.46
X197.625Y-77.0
X197.625Y-79.54
X197.625Y-82.08
X197.625Y-84.62
X197.625Y-87.16
X198.54Y-70.0
M30
