%TF.GenerationSoftware,KiCad,Pcbnew,8.0.3*%
%TF.CreationDate,2025-01-29T18:19:50+01:00*%
%TF.ProjectId,Esp32-card,45737033-322d-4636-9172-642e6b696361,rev?*%
%TF.SameCoordinates,Original*%
%TF.FileFunction,Copper,L2,Bot*%
%TF.FilePolarity,Positive*%
%FSLAX46Y46*%
G04 Gerber Fmt 4.6, Leading zero omitted, Abs format (unit mm)*
G04 Created by KiCad (PCBNEW 8.0.3) date 2025-01-29 18:19:50*
%MOMM*%
%LPD*%
G01*
G04 APERTURE LIST*
%TA.AperFunction,ComponentPad*%
%ADD10C,2.000000*%
%TD*%
%TA.AperFunction,ComponentPad*%
%ADD11R,1.600000X1.600000*%
%TD*%
%TA.AperFunction,ComponentPad*%
%ADD12O,1.600000X1.600000*%
%TD*%
%TA.AperFunction,ComponentPad*%
%ADD13R,1.700000X1.700000*%
%TD*%
%TA.AperFunction,ComponentPad*%
%ADD14O,1.700000X1.700000*%
%TD*%
%TA.AperFunction,ComponentPad*%
%ADD15C,1.600000*%
%TD*%
%TA.AperFunction,ViaPad*%
%ADD16C,1.000000*%
%TD*%
%TA.AperFunction,Conductor*%
%ADD17C,1.500000*%
%TD*%
G04 APERTURE END LIST*
D10*
%TO.P,ESP32_WROOM_KIT1,1,3v3*%
%TO.N,3v3*%
X165700000Y-44700000D03*
%TO.P,ESP32_WROOM_KIT1,2,EN*%
%TO.N,unconnected-(ESP32_WROOM_KIT1-EN-Pad2)*%
X163160000Y-44700000D03*
%TO.P,ESP32_WROOM_KIT1,3,GPIO36*%
%TO.N,unconnected-(ESP32_WROOM_KIT1-GPIO36-Pad3)*%
X160620000Y-44700000D03*
%TO.P,ESP32_WROOM_KIT1,4,GPIO39*%
%TO.N,unconnected-(ESP32_WROOM_KIT1-GPIO39-Pad4)*%
X158080000Y-44700000D03*
%TO.P,ESP32_WROOM_KIT1,5,GPIO34*%
%TO.N,unconnected-(ESP32_WROOM_KIT1-GPIO34-Pad5)*%
X155540000Y-44700000D03*
%TO.P,ESP32_WROOM_KIT1,6,GPIO35*%
%TO.N,unconnected-(ESP32_WROOM_KIT1-GPIO35-Pad6)*%
X153000000Y-44700000D03*
%TO.P,ESP32_WROOM_KIT1,7,GPIO32*%
%TO.N,unconnected-(ESP32_WROOM_KIT1-GPIO32-Pad7)*%
X150460000Y-44700000D03*
%TO.P,ESP32_WROOM_KIT1,8,GPIO33*%
%TO.N,Analog_Pin1*%
X147920000Y-44700000D03*
%TO.P,ESP32_WROOM_KIT1,9,GPIO25*%
%TO.N,Data*%
X145380000Y-44700000D03*
%TO.P,ESP32_WROOM_KIT1,10,GPIO26*%
%TO.N,Clock*%
X142840000Y-44700000D03*
%TO.P,ESP32_WROOM_KIT1,11,GPIO27*%
%TO.N,Trig*%
X140300000Y-44700000D03*
%TO.P,ESP32_WROOM_KIT1,12,GPIO14*%
%TO.N,M2_Pin_EN*%
X137760000Y-44700000D03*
%TO.P,ESP32_WROOM_KIT1,13,GPIO12*%
%TO.N,M1_Pin_EN*%
X135220000Y-44700000D03*
%TO.P,ESP32_WROOM_KIT1,14,GND*%
%TO.N,unconnected-(ESP32_WROOM_KIT1-GND-Pad14)*%
X132680000Y-44700000D03*
%TO.P,ESP32_WROOM_KIT1,15,GPIO13*%
%TO.N,unconnected-(ESP32_WROOM_KIT1-GPIO13-Pad15)*%
X130140000Y-44700000D03*
%TO.P,ESP32_WROOM_KIT1,16,GPIO9*%
%TO.N,unconnected-(ESP32_WROOM_KIT1-GPIO9-Pad16)*%
X127600000Y-44700000D03*
%TO.P,ESP32_WROOM_KIT1,17,GPIO10*%
%TO.N,unconnected-(ESP32_WROOM_KIT1-GPIO10-Pad17)*%
X125060000Y-44700000D03*
%TO.P,ESP32_WROOM_KIT1,18,GPIO11*%
%TO.N,unconnected-(ESP32_WROOM_KIT1-GPIO11-Pad18)*%
X122520000Y-44700000D03*
%TO.P,ESP32_WROOM_KIT1,19,5V*%
%TO.N,5v*%
X119980000Y-44700000D03*
%TO.P,ESP32_WROOM_KIT1,20,GND*%
%TO.N,GND*%
X119980000Y-70000000D03*
%TO.P,ESP32_WROOM_KIT1,21,GPIO23*%
%TO.N,Net-(ESP32_WROOM_KIT1-GPIO23)*%
X122520000Y-70000000D03*
%TO.P,ESP32_WROOM_KIT1,22,GPIO22*%
%TO.N,Net-(ESP32_WROOM_KIT1-GPIO22)*%
X125060000Y-70000000D03*
%TO.P,ESP32_WROOM_KIT1,23,GPIO1*%
%TO.N,unconnected-(ESP32_WROOM_KIT1-GPIO1-Pad23)*%
X127600000Y-70000000D03*
%TO.P,ESP32_WROOM_KIT1,24,GPIO3*%
%TO.N,unconnected-(ESP32_WROOM_KIT1-GPIO3-Pad24)*%
X130140000Y-70000000D03*
%TO.P,ESP32_WROOM_KIT1,25,GPIO21*%
%TO.N,unconnected-(ESP32_WROOM_KIT1-GPIO21-Pad25)*%
X132680000Y-70000000D03*
%TO.P,ESP32_WROOM_KIT1,26,GND*%
%TO.N,unconnected-(ESP32_WROOM_KIT1-GND-Pad26)*%
X135220000Y-70000000D03*
%TO.P,ESP32_WROOM_KIT1,27,GPIO19*%
%TO.N,Net-(ESP32_WROOM_KIT1-GPIO19)*%
X137760000Y-70000000D03*
%TO.P,ESP32_WROOM_KIT1,28,GPIO18*%
%TO.N,Net-(ESP32_WROOM_KIT1-GPIO18)*%
X140300000Y-70000000D03*
%TO.P,ESP32_WROOM_KIT1,29,GPIO5*%
%TO.N,Net-(ESP32_WROOM_KIT1-GPIO5)*%
X142840000Y-70000000D03*
%TO.P,ESP32_WROOM_KIT1,30,GPIO17*%
%TO.N,unconnected-(ESP32_WROOM_KIT1-GPIO17-Pad30)*%
X145380000Y-70000000D03*
%TO.P,ESP32_WROOM_KIT1,31,GPIO16*%
%TO.N,unconnected-(ESP32_WROOM_KIT1-GPIO16-Pad31)*%
X147920000Y-70000000D03*
%TO.P,ESP32_WROOM_KIT1,32,GPIO4*%
%TO.N,Net-(ESP32_WROOM_KIT1-GPIO4)*%
X150460000Y-70000000D03*
%TO.P,ESP32_WROOM_KIT1,33,GPIO0*%
%TO.N,unconnected-(ESP32_WROOM_KIT1-GPIO0-Pad33)*%
X153000000Y-70000000D03*
%TO.P,ESP32_WROOM_KIT1,34,GPIO2*%
%TO.N,unconnected-(ESP32_WROOM_KIT1-GPIO2-Pad34)*%
X155540000Y-70000000D03*
%TO.P,ESP32_WROOM_KIT1,35,GPIO15*%
%TO.N,Net-(ESP32_WROOM_KIT1-GPIO15)*%
X158080000Y-70000000D03*
%TO.P,ESP32_WROOM_KIT1,36,GPIO8*%
%TO.N,unconnected-(ESP32_WROOM_KIT1-GPIO8-Pad36)*%
X160620000Y-70000000D03*
%TO.P,ESP32_WROOM_KIT1,37,GPIO7*%
%TO.N,unconnected-(ESP32_WROOM_KIT1-GPIO7-Pad37)*%
X163160000Y-70000000D03*
%TO.P,ESP32_WROOM_KIT1,38,GPIO6*%
%TO.N,unconnected-(ESP32_WROOM_KIT1-GPIO6-Pad38)*%
X165700000Y-70000000D03*
%TD*%
D11*
%TO.P,U4,1,A4*%
%TO.N,Capteur_Hall_1*%
X149200000Y-91300000D03*
D12*
%TO.P,U4,2,A6*%
%TO.N,Capteur_Autre_1*%
X149200000Y-93840000D03*
%TO.P,U4,3,A*%
%TO.N,Analog_Pin1*%
X149200000Y-96380000D03*
%TO.P,U4,4,A7*%
%TO.N,Capteur_Autre_2*%
X149200000Y-98920000D03*
%TO.P,U4,5,A5*%
%TO.N,Capteur_Hall_2*%
X149200000Y-101460000D03*
%TO.P,U4,6,~{E}*%
%TO.N,GND*%
X149200000Y-104000000D03*
%TO.P,U4,7,VEE*%
X149200000Y-106540000D03*
%TO.P,U4,8,GND*%
X149200000Y-109080000D03*
%TO.P,U4,9,S2*%
%TO.N,Net-(U1-QG)*%
X156820000Y-109080000D03*
%TO.P,U4,10,S1*%
%TO.N,Net-(U1-QF)*%
X156820000Y-106540000D03*
%TO.P,U4,11,S0*%
%TO.N,Net-(U1-QE)*%
X156820000Y-104000000D03*
%TO.P,U4,12,A3*%
%TO.N,Capteur_Force_3*%
X156820000Y-101460000D03*
%TO.P,U4,13,A0*%
%TO.N,Net-(J14-Pin_6)*%
X156820000Y-98920000D03*
%TO.P,U4,14,A1*%
%TO.N,Capteur_Force_1*%
X156820000Y-96380000D03*
%TO.P,U4,15,A2*%
%TO.N,Capteur_Force_2*%
X156820000Y-93840000D03*
%TO.P,U4,16,VCC*%
%TO.N,3v3*%
X156820000Y-91300000D03*
%TD*%
D11*
%TO.P,U1,1,QB*%
%TO.N,M1_Pin_Dir2*%
X194200000Y-103125000D03*
D12*
%TO.P,U1,2,QC*%
%TO.N,M2_Pin_Dir1*%
X194200000Y-105665000D03*
%TO.P,U1,3,QD*%
%TO.N,M2_Pin_Dir2*%
X194200000Y-108205000D03*
%TO.P,U1,4,QE*%
%TO.N,Net-(U1-QE)*%
X194200000Y-110745000D03*
%TO.P,U1,5,QF*%
%TO.N,Net-(U1-QF)*%
X194200000Y-113285000D03*
%TO.P,U1,6,QG*%
%TO.N,Net-(U1-QG)*%
X194200000Y-115825000D03*
%TO.P,U1,7,QH*%
%TO.N,unconnected-(U1-QH-Pad7)*%
X194200000Y-118365000D03*
%TO.P,U1,8,GND*%
%TO.N,GND*%
X194200000Y-120905000D03*
%TO.P,U1,9,QH'*%
%TO.N,Net-(U1-QH')*%
X201820000Y-120905000D03*
%TO.P,U1,10,~{SRCLR}*%
%TO.N,3v3*%
X201820000Y-118365000D03*
%TO.P,U1,11,SRCLK*%
%TO.N,Clock*%
X201820000Y-115825000D03*
%TO.P,U1,12,RCLK*%
%TO.N,Trig*%
X201820000Y-113285000D03*
%TO.P,U1,13,~{OE}*%
%TO.N,GND*%
X201820000Y-110745000D03*
%TO.P,U1,14,SER*%
%TO.N,Data*%
X201820000Y-108205000D03*
%TO.P,U1,15,QA*%
%TO.N,M1_Pin_Dir1*%
X201820000Y-105665000D03*
%TO.P,U1,16,VCC*%
%TO.N,3v3*%
X201820000Y-103125000D03*
%TD*%
D13*
%TO.P,J2,1,Pin_1*%
%TO.N,5v*%
X128375000Y-90275000D03*
D14*
%TO.P,J2,2,Pin_2*%
%TO.N,Capteur_Force_1*%
X128375000Y-87735000D03*
%TD*%
D13*
%TO.P,J12,1,Pin_1*%
%TO.N,3v3*%
X187460000Y-48000000D03*
D14*
%TO.P,J12,2,Pin_2*%
%TO.N,GND*%
X190000000Y-48000000D03*
%TO.P,J12,3,Pin_3*%
%TO.N,Trig*%
X192540000Y-48000000D03*
%TO.P,J12,4,Pin_4*%
%TO.N,Clock*%
X195080000Y-48000000D03*
%TO.P,J12,5,Pin_5*%
%TO.N,Net-(J12-Pin_5)*%
X197620000Y-48000000D03*
%TD*%
D13*
%TO.P,J14,1,Pin_1*%
%TO.N,3v3*%
X197625000Y-74460000D03*
D14*
%TO.P,J14,2,Pin_2*%
%TO.N,GND*%
X197625000Y-77000000D03*
%TO.P,J14,3,Pin_3*%
%TO.N,Net-(J14-Pin_3)*%
X197625000Y-79540000D03*
%TO.P,J14,4,Pin_4*%
%TO.N,Net-(J14-Pin_4)*%
X197625000Y-82080000D03*
%TO.P,J14,5,Pin_5*%
%TO.N,Net-(J14-Pin_5)*%
X197625000Y-84620000D03*
%TO.P,J14,6,Pin_6*%
%TO.N,Net-(J14-Pin_6)*%
X197625000Y-87160000D03*
%TD*%
D13*
%TO.P,J13,1,Pin_1*%
%TO.N,5v*%
X128375000Y-118275000D03*
D14*
%TO.P,J13,2,Pin_2*%
%TO.N,Capteur_Autre_2*%
X128375000Y-115735000D03*
%TD*%
D13*
%TO.P,J3,1,Pin_1*%
%TO.N,5v*%
X128375000Y-97275000D03*
D14*
%TO.P,J3,2,Pin_2*%
%TO.N,Capteur_Force_2*%
X128375000Y-94735000D03*
%TD*%
D13*
%TO.P,J11,1,Pin_1*%
%TO.N,5v*%
X128375000Y-111275000D03*
D14*
%TO.P,J11,2,Pin_2*%
%TO.N,Capteur_Autre_1*%
X128375000Y-108735000D03*
%TD*%
D15*
%TO.P,R2,1*%
%TO.N,GND*%
X141000000Y-95000000D03*
D12*
%TO.P,R2,2*%
%TO.N,Capteur_Force_2*%
X133380000Y-95000000D03*
%TD*%
D13*
%TO.P,J8,1,Pin_1*%
%TO.N,M2_Pin_EN*%
X187000000Y-110350000D03*
D14*
%TO.P,J8,2,Pin_2*%
%TO.N,M2_Pin_Dir2*%
X187000000Y-107810000D03*
%TO.P,J8,3,Pin_3*%
%TO.N,M2_Pin_Dir1*%
X187000000Y-105270000D03*
%TO.P,J8,4,Pin_4*%
%TO.N,M1_Pin_Dir2*%
X187000000Y-102730000D03*
%TO.P,J8,5,Pin_5*%
%TO.N,M1_Pin_Dir1*%
X187000000Y-100190000D03*
%TO.P,J8,6,Pin_6*%
%TO.N,M1_Pin_EN*%
X187000000Y-97650000D03*
%TD*%
D15*
%TO.P,R5,1*%
%TO.N,GND*%
X140810000Y-116000000D03*
D12*
%TO.P,R5,2*%
%TO.N,Capteur_Autre_2*%
X133190000Y-116000000D03*
%TD*%
D15*
%TO.P,R3,1*%
%TO.N,GND*%
X140810000Y-101000000D03*
D12*
%TO.P,R3,2*%
%TO.N,Capteur_Force_3*%
X133190000Y-101000000D03*
%TD*%
D13*
%TO.P,J9,1,Pin_1*%
%TO.N,Net-(J9-Pin_1)*%
X198540000Y-70000000D03*
D14*
%TO.P,J9,2,Pin_2*%
%TO.N,Net-(J9-Pin_2)*%
X196000000Y-70000000D03*
%TO.P,J9,3,Pin_3*%
%TO.N,Net-(J9-Pin_3)*%
X193460000Y-70000000D03*
%TO.P,J9,4,Pin_4*%
%TO.N,Net-(J9-Pin_4)*%
X190920000Y-70000000D03*
%TO.P,J9,5,Pin_5*%
%TO.N,Net-(J9-Pin_5)*%
X188380000Y-70000000D03*
%TD*%
D11*
%TO.P,U2,1,QB*%
%TO.N,Net-(J14-Pin_4)*%
X183300000Y-66000000D03*
D12*
%TO.P,U2,2,QC*%
%TO.N,Net-(J14-Pin_3)*%
X185840000Y-66000000D03*
%TO.P,U2,3,QD*%
%TO.N,Net-(J9-Pin_5)*%
X188380000Y-66000000D03*
%TO.P,U2,4,QE*%
%TO.N,Net-(J9-Pin_4)*%
X190920000Y-66000000D03*
%TO.P,U2,5,QF*%
%TO.N,Net-(J9-Pin_3)*%
X193460000Y-66000000D03*
%TO.P,U2,6,QG*%
%TO.N,Net-(J9-Pin_2)*%
X196000000Y-66000000D03*
%TO.P,U2,7,QH*%
%TO.N,Net-(J9-Pin_1)*%
X198540000Y-66000000D03*
%TO.P,U2,8,GND*%
%TO.N,GND*%
X201080000Y-66000000D03*
%TO.P,U2,9,QH'*%
%TO.N,Net-(J12-Pin_5)*%
X201080000Y-58380000D03*
%TO.P,U2,10,~{SRCLR}*%
%TO.N,3v3*%
X198540000Y-58380000D03*
%TO.P,U2,11,SRCLK*%
%TO.N,Clock*%
X196000000Y-58380000D03*
%TO.P,U2,12,RCLK*%
%TO.N,Trig*%
X193460000Y-58380000D03*
%TO.P,U2,13,~{OE}*%
%TO.N,GND*%
X190920000Y-58380000D03*
%TO.P,U2,14,SER*%
%TO.N,Net-(U1-QH')*%
X188380000Y-58380000D03*
%TO.P,U2,15,QA*%
%TO.N,Net-(J14-Pin_5)*%
X185840000Y-58380000D03*
%TO.P,U2,16,VCC*%
%TO.N,3v3*%
X183300000Y-58380000D03*
%TD*%
D13*
%TO.P,J4,1,Pin_1*%
%TO.N,3v3*%
X160525000Y-115625000D03*
D14*
%TO.P,J4,2,Pin_2*%
%TO.N,Capteur_Hall_1*%
X157985000Y-115625000D03*
%TO.P,J4,3,Pin_3*%
%TO.N,GND*%
X155445000Y-115625000D03*
%TD*%
D13*
%TO.P,J6,1,Pin_1*%
%TO.N,GND*%
X137000000Y-123000000D03*
D14*
%TO.P,J6,2,Pin_2*%
%TO.N,5v*%
X134460000Y-123000000D03*
%TD*%
D15*
%TO.P,R1,1*%
%TO.N,GND*%
X140620000Y-88000000D03*
D12*
%TO.P,R1,2*%
%TO.N,Capteur_Force_1*%
X133000000Y-88000000D03*
%TD*%
D15*
%TO.P,R4,1*%
%TO.N,GND*%
X141000000Y-109000000D03*
D12*
%TO.P,R4,2*%
%TO.N,Capteur_Autre_1*%
X133380000Y-109000000D03*
%TD*%
D13*
%TO.P,J10,1,Pin_1*%
%TO.N,5v*%
X128375000Y-104275000D03*
D14*
%TO.P,J10,2,Pin_2*%
%TO.N,Capteur_Force_3*%
X128375000Y-101735000D03*
%TD*%
D13*
%TO.P,J1,1,Pin_1*%
%TO.N,unconnected-(J1-Pin_1-Pad1)*%
X124300000Y-78000000D03*
D14*
%TO.P,J1,2,Pin_2*%
%TO.N,unconnected-(J1-Pin_2-Pad2)*%
X126840000Y-78000000D03*
%TO.P,J1,3,Pin_3*%
%TO.N,unconnected-(J1-Pin_3-Pad3)*%
X129380000Y-78000000D03*
%TO.P,J1,4,Pin_4*%
%TO.N,unconnected-(J1-Pin_4-Pad4)*%
X131920000Y-78000000D03*
%TO.P,J1,5,Pin_5*%
%TO.N,unconnected-(J1-Pin_5-Pad5)*%
X134460000Y-78000000D03*
%TO.P,J1,6,Pin_6*%
%TO.N,Net-(ESP32_WROOM_KIT1-GPIO19)*%
X137000000Y-78000000D03*
%TO.P,J1,7,Pin_7*%
%TO.N,Net-(ESP32_WROOM_KIT1-GPIO15)*%
X139540000Y-78000000D03*
%TO.P,J1,8,Pin_8*%
%TO.N,Net-(ESP32_WROOM_KIT1-GPIO18)*%
X142080000Y-78000000D03*
%TO.P,J1,9,Pin_9*%
%TO.N,Net-(ESP32_WROOM_KIT1-GPIO23)*%
X144620000Y-78000000D03*
%TO.P,J1,10,Pin_10*%
%TO.N,Net-(ESP32_WROOM_KIT1-GPIO4)*%
X147160000Y-78000000D03*
%TO.P,J1,11,Pin_11*%
%TO.N,Net-(ESP32_WROOM_KIT1-GPIO22)*%
X149700000Y-78000000D03*
%TO.P,J1,12,Pin_12*%
%TO.N,Net-(ESP32_WROOM_KIT1-GPIO5)*%
X152240000Y-78000000D03*
%TO.P,J1,13,Pin_13*%
%TO.N,GND*%
X154780000Y-78000000D03*
%TO.P,J1,14,Pin_14*%
%TO.N,3v3*%
X157320000Y-78000000D03*
%TD*%
D13*
%TO.P,J5,1,Pin_1*%
%TO.N,3v3*%
X150525000Y-115625000D03*
D14*
%TO.P,J5,2,Pin_2*%
%TO.N,Capteur_Hall_2*%
X147985000Y-115625000D03*
%TO.P,J5,3,Pin_3*%
%TO.N,GND*%
X145445000Y-115625000D03*
%TD*%
D16*
%TO.N,Data*%
X146000000Y-57000000D03*
X176000000Y-92000000D03*
%TO.N,Trig*%
X141500000Y-49500000D03*
X171500000Y-48500000D03*
X182800000Y-46200000D03*
X204000000Y-113000000D03*
%TO.N,Clock*%
X176000000Y-44000000D03*
X142840000Y-48160000D03*
X178000000Y-92000000D03*
%TO.N,3v3*%
X164000000Y-85000000D03*
X161000000Y-78000000D03*
X198347500Y-99652500D03*
X198000000Y-55000000D03*
X166000000Y-102000000D03*
X206000000Y-118000000D03*
X183300000Y-55000000D03*
%TO.N,GND*%
X205000000Y-66000000D03*
X172000000Y-83000000D03*
X158000000Y-112000000D03*
X184000000Y-83000000D03*
X162000000Y-76000000D03*
X190000000Y-75000000D03*
%TO.N,M1_Pin_EN*%
X139000000Y-61000000D03*
X175000000Y-98000000D03*
%TO.N,Net-(U1-QH')*%
X187000000Y-53000000D03*
X184000000Y-123000000D03*
%TO.N,M2_Pin_EN*%
X156000000Y-59000000D03*
X138000000Y-56000000D03*
X170000000Y-102000000D03*
X166000000Y-83000000D03*
%TO.N,Capteur_Force_1*%
X164000000Y-96000000D03*
%TO.N,Capteur_Force_2*%
X162000000Y-89000000D03*
%TO.N,Capteur_Force_3*%
X162000000Y-99000000D03*
%TO.N,Capteur_Autre_1*%
X146000000Y-94000000D03*
%TO.N,Net-(J14-Pin_6)*%
X168000000Y-98000000D03*
X159000000Y-99000000D03*
%TO.N,Net-(ESP32_WROOM_KIT1-GPIO23)*%
X122000000Y-72000000D03*
X126000000Y-81000000D03*
%TO.N,Net-(ESP32_WROOM_KIT1-GPIO15)*%
X139640000Y-73360000D03*
X155000000Y-73000000D03*
%TO.N,Net-(ESP32_WROOM_KIT1-GPIO5)*%
X152000000Y-75000000D03*
X144000000Y-75000000D03*
%TD*%
D17*
%TO.N,Data*%
X177595837Y-94000000D02*
X176300000Y-92704163D01*
X145380000Y-44700000D02*
X145380000Y-56380000D01*
X203795000Y-99795000D02*
X198000000Y-94000000D01*
X201820000Y-108205000D02*
X203795000Y-108205000D01*
X198000000Y-94000000D02*
X177595837Y-94000000D01*
X176300000Y-92300000D02*
X176000000Y-92000000D01*
X176300000Y-92704163D02*
X176300000Y-92300000D01*
X203795000Y-108205000D02*
X203795000Y-99795000D01*
X145380000Y-56380000D02*
X146000000Y-57000000D01*
%TO.N,Trig*%
X193460000Y-48920000D02*
X192770000Y-48230000D01*
X141500000Y-49500000D02*
X140300000Y-48300000D01*
X201820000Y-113285000D02*
X203715000Y-113285000D01*
X193460000Y-58380000D02*
X193460000Y-48920000D01*
X192770000Y-48230000D02*
X192540000Y-48000000D01*
X192770000Y-48224415D02*
X192770000Y-48230000D01*
X171500000Y-48500000D02*
X173800000Y-46200000D01*
X140300000Y-48300000D02*
X140300000Y-44700000D01*
X203715000Y-113285000D02*
X204000000Y-113000000D01*
X173800000Y-46200000D02*
X182800000Y-46200000D01*
X190745585Y-46200000D02*
X192770000Y-48224415D01*
X182800000Y-46200000D02*
X190745585Y-46200000D01*
%TO.N,Analog_Pin1*%
X166704164Y-62300000D02*
X152300000Y-62300000D01*
X143000000Y-93404163D02*
X143000000Y-91000000D01*
X156165836Y-89550000D02*
X165015836Y-80700000D01*
X169350000Y-72650000D02*
X169350000Y-64945836D01*
X149200000Y-96380000D02*
X145975837Y-96380000D01*
X147920000Y-57920000D02*
X147920000Y-44700000D01*
X165000000Y-77000000D02*
X169350000Y-72650000D01*
X165015836Y-77015836D02*
X165000000Y-77000000D01*
X144450000Y-89550000D02*
X156165836Y-89550000D01*
X169350000Y-64945836D02*
X166704164Y-62300000D01*
X143000000Y-91000000D02*
X144450000Y-89550000D01*
X145975837Y-96380000D02*
X143000000Y-93404163D01*
X165015836Y-80700000D02*
X165015836Y-77015836D01*
X152300000Y-62300000D02*
X147920000Y-57920000D01*
%TO.N,Clock*%
X207000000Y-115000000D02*
X206175000Y-115825000D01*
X198404164Y-92000000D02*
X207000000Y-100595836D01*
X207000000Y-100595836D02*
X207000000Y-115000000D01*
X176000000Y-44000000D02*
X192282081Y-44000000D01*
X192282081Y-44000000D02*
X195080000Y-46797919D01*
X178000000Y-92000000D02*
X198404164Y-92000000D01*
X196000000Y-48920000D02*
X195080000Y-48000000D01*
X142840000Y-48160000D02*
X142840000Y-44700000D01*
X206175000Y-115825000D02*
X201820000Y-115825000D01*
X196000000Y-58380000D02*
X196000000Y-48920000D01*
X195080000Y-46797919D02*
X195080000Y-48000000D01*
%TO.N,3v3*%
X157320000Y-78000000D02*
X161000000Y-78000000D01*
X201820000Y-103125000D02*
X194545000Y-95850000D01*
X198540000Y-55540000D02*
X198000000Y-55000000D01*
X164000000Y-85000000D02*
X163120000Y-85000000D01*
X205635000Y-118365000D02*
X206000000Y-118000000D01*
X201820000Y-118365000D02*
X205635000Y-118365000D01*
X167000000Y-102000000D02*
X166000000Y-102000000D01*
X173150000Y-95850000D02*
X167000000Y-102000000D01*
X183300000Y-52160000D02*
X187460000Y-48000000D01*
X183300000Y-58380000D02*
X183300000Y-52160000D01*
X183300000Y-52160000D02*
X172160000Y-52160000D01*
X194545000Y-95850000D02*
X173150000Y-95850000D01*
X163120000Y-85000000D02*
X156820000Y-91300000D01*
X165700000Y-45700000D02*
X165700000Y-44700000D01*
X198540000Y-58380000D02*
X198540000Y-56000000D01*
X172160000Y-52160000D02*
X165700000Y-45700000D01*
X164000000Y-85000000D02*
X166000000Y-87000000D01*
X166000000Y-87000000D02*
X166000000Y-102000000D01*
%TO.N,GND*%
X171459164Y-120905000D02*
X162554164Y-112000000D01*
X199330000Y-64250000D02*
X196790000Y-64250000D01*
X155445000Y-115625000D02*
X153645000Y-117425000D01*
X195950000Y-119155000D02*
X194200000Y-120905000D01*
X197625000Y-77000000D02*
X192000000Y-77000000D01*
X146042919Y-117425000D02*
X145445000Y-116827081D01*
X149200000Y-106540000D02*
X149200000Y-109080000D01*
X190000000Y-75000000D02*
X190500000Y-75500000D01*
X149200000Y-104000000D02*
X149200000Y-106540000D01*
X145445000Y-116827081D02*
X145445000Y-115625000D01*
X140810000Y-108810000D02*
X141000000Y-109000000D01*
X149200000Y-109080000D02*
X145445000Y-112835000D01*
X154780000Y-76797919D02*
X154780000Y-78000000D01*
X201080000Y-66000000D02*
X199330000Y-64250000D01*
X201820000Y-110745000D02*
X195950000Y-116615000D01*
X190920000Y-58380000D02*
X190920000Y-48920000D01*
X154780000Y-84220000D02*
X154000000Y-85000000D01*
X194200000Y-120905000D02*
X171459164Y-120905000D01*
X167650000Y-65650000D02*
X167650000Y-70807717D01*
X140810000Y-101000000D02*
X140810000Y-108810000D01*
X192000000Y-77000000D02*
X190000000Y-75000000D01*
X166000000Y-64000000D02*
X167650000Y-65650000D01*
X140620000Y-88000000D02*
X140620000Y-86868630D01*
X124565787Y-64000000D02*
X166000000Y-64000000D01*
X196790000Y-64250000D02*
X190920000Y-58380000D01*
X145445000Y-112835000D02*
X145445000Y-115625000D01*
X119980000Y-70000000D02*
X119980000Y-68585787D01*
X162554164Y-112000000D02*
X158000000Y-112000000D01*
X144375000Y-115625000D02*
X137000000Y-123000000D01*
X195950000Y-116615000D02*
X195950000Y-119155000D01*
X190920000Y-48920000D02*
X190000000Y-48000000D01*
X201080000Y-66000000D02*
X205000000Y-66000000D01*
X145445000Y-115625000D02*
X144375000Y-115625000D01*
X140620000Y-86868630D02*
X142488630Y-85000000D01*
X153645000Y-117425000D02*
X146042919Y-117425000D01*
X162457717Y-76000000D02*
X162000000Y-76000000D01*
X155577919Y-76000000D02*
X154780000Y-76797919D01*
X142488630Y-85000000D02*
X154000000Y-85000000D01*
X119980000Y-68585787D02*
X124565787Y-64000000D01*
X162000000Y-76000000D02*
X155577919Y-76000000D01*
X154780000Y-78000000D02*
X154780000Y-84220000D01*
X167650000Y-70807717D02*
X162457717Y-76000000D01*
X184000000Y-83000000D02*
X172000000Y-83000000D01*
%TO.N,Net-(U1-QG)*%
X156820000Y-109080000D02*
X173016672Y-109080000D01*
X173016672Y-109080000D02*
X179761672Y-115825000D01*
X179761672Y-115825000D02*
X194200000Y-115825000D01*
%TO.N,M1_Pin_Dir1*%
X194765000Y-100190000D02*
X196000000Y-101425000D01*
X196665000Y-105665000D02*
X201820000Y-105665000D01*
X187000000Y-100190000D02*
X194765000Y-100190000D01*
X196000000Y-101425000D02*
X196000000Y-105000000D01*
X196000000Y-105000000D02*
X196665000Y-105665000D01*
%TO.N,M2_Pin_Dir2*%
X193805000Y-107810000D02*
X194200000Y-108205000D01*
X187000000Y-107810000D02*
X193805000Y-107810000D01*
%TO.N,M1_Pin_EN*%
X139000000Y-61000000D02*
X135220000Y-57220000D01*
X135220000Y-57220000D02*
X135220000Y-44700000D01*
X175350000Y-97650000D02*
X187000000Y-97650000D01*
X175000000Y-98000000D02*
X175350000Y-97650000D01*
%TO.N,M2_Pin_Dir1*%
X193805000Y-105270000D02*
X194200000Y-105665000D01*
X187000000Y-105270000D02*
X193805000Y-105270000D01*
%TO.N,M1_Pin_Dir2*%
X187395000Y-103125000D02*
X187000000Y-102730000D01*
X194200000Y-103125000D02*
X187395000Y-103125000D01*
%TO.N,Net-(U1-QH')*%
X188380000Y-54380000D02*
X187000000Y-53000000D01*
X188380000Y-58380000D02*
X188380000Y-54380000D01*
X199725000Y-123000000D02*
X184000000Y-123000000D01*
X201820000Y-120905000D02*
X199725000Y-123000000D01*
%TO.N,M2_Pin_EN*%
X167408328Y-60600000D02*
X166600000Y-60600000D01*
X166000000Y-83000000D02*
X167000000Y-82000000D01*
X171050000Y-64241672D02*
X167408328Y-60600000D01*
X181499164Y-110350000D02*
X187000000Y-110350000D01*
X166600000Y-60600000D02*
X165000000Y-59000000D01*
X138000000Y-44940000D02*
X137760000Y-44700000D01*
X165000000Y-59000000D02*
X156000000Y-59000000D01*
X173149164Y-102000000D02*
X181499164Y-110350000D01*
X170000000Y-102000000D02*
X173149164Y-102000000D01*
X171050000Y-73950000D02*
X171050000Y-64241672D01*
X167000000Y-82000000D02*
X167000000Y-78000000D01*
X138000000Y-56000000D02*
X138000000Y-44940000D01*
X167000000Y-78000000D02*
X171050000Y-73950000D01*
%TO.N,Net-(J9-Pin_2)*%
X196000000Y-66000000D02*
X196000000Y-70000000D01*
%TO.N,5v*%
X128375000Y-104275000D02*
X130725000Y-104275000D01*
X130725000Y-97275000D02*
X128375000Y-97275000D01*
X130725000Y-118275000D02*
X131000000Y-118000000D01*
X119980000Y-44700000D02*
X118030000Y-46650000D01*
X128375000Y-118275000D02*
X130725000Y-118275000D01*
X130725000Y-104275000D02*
X131000000Y-104000000D01*
X118030000Y-46650000D02*
X118030000Y-81030000D01*
X131000000Y-118000000D02*
X131000000Y-108655585D01*
X131000000Y-108655585D02*
X131000000Y-104000000D01*
X130725000Y-119265000D02*
X134460000Y-123000000D01*
X131000000Y-97000000D02*
X130725000Y-97275000D01*
X118030000Y-81030000D02*
X127275000Y-90275000D01*
X130725000Y-118275000D02*
X130725000Y-119265000D01*
X131000000Y-91000000D02*
X131000000Y-97000000D01*
X127275000Y-90275000D02*
X128375000Y-90275000D01*
X130275000Y-90275000D02*
X131000000Y-91000000D01*
X128375000Y-90275000D02*
X130275000Y-90275000D01*
X128380585Y-111275000D02*
X131000000Y-108655585D01*
X128375000Y-111275000D02*
X128380585Y-111275000D01*
X131000000Y-104000000D02*
X131000000Y-97000000D01*
%TO.N,Net-(J9-Pin_1)*%
X198540000Y-66000000D02*
X198540000Y-70000000D01*
%TO.N,Capteur_Force_1*%
X157200000Y-96000000D02*
X156820000Y-96380000D01*
X164000000Y-96000000D02*
X157200000Y-96000000D01*
%TO.N,Capteur_Force_2*%
X156820000Y-93840000D02*
X158160000Y-93840000D01*
X162000000Y-90000000D02*
X162000000Y-89000000D01*
X158160000Y-93840000D02*
X162000000Y-90000000D01*
%TO.N,Net-(J9-Pin_5)*%
X188380000Y-66000000D02*
X188380000Y-70000000D01*
%TO.N,Capteur_Hall_1*%
X154000000Y-111000000D02*
X154000000Y-96100000D01*
X157985000Y-115625000D02*
X157985000Y-114985000D01*
X154000000Y-96100000D02*
X149200000Y-91300000D01*
X157985000Y-114985000D02*
X154000000Y-111000000D01*
%TO.N,Capteur_Hall_2*%
X150950000Y-103210000D02*
X150950000Y-111050000D01*
X149200000Y-101460000D02*
X150950000Y-103210000D01*
X147985000Y-114015000D02*
X147985000Y-115625000D01*
X150950000Y-111050000D02*
X147985000Y-114015000D01*
%TO.N,Net-(J9-Pin_4)*%
X190920000Y-66000000D02*
X190920000Y-70000000D01*
%TO.N,Net-(J9-Pin_3)*%
X193460000Y-66000000D02*
X193460000Y-70000000D01*
%TO.N,Capteur_Force_3*%
X156820000Y-101460000D02*
X159540000Y-101460000D01*
X159540000Y-101460000D02*
X162000000Y-99000000D01*
%TO.N,Capteur_Autre_1*%
X149040000Y-94000000D02*
X149200000Y-93840000D01*
X146000000Y-94000000D02*
X149040000Y-94000000D01*
%TO.N,Net-(J12-Pin_5)*%
X201080000Y-51460000D02*
X197620000Y-48000000D01*
X201080000Y-58380000D02*
X201080000Y-51460000D01*
%TO.N,Capteur_Autre_2*%
X147000000Y-100000000D02*
X147000000Y-108000000D01*
X147000000Y-108000000D02*
X142000000Y-113000000D01*
X149200000Y-98920000D02*
X148080000Y-98920000D01*
X136190000Y-113000000D02*
X142000000Y-113000000D01*
X148080000Y-98920000D02*
X147000000Y-100000000D01*
X133190000Y-116000000D02*
X136190000Y-113000000D01*
%TO.N,Net-(J14-Pin_6)*%
X158920000Y-98920000D02*
X159000000Y-99000000D01*
X170840000Y-87160000D02*
X170000000Y-88000000D01*
X156820000Y-98920000D02*
X158920000Y-98920000D01*
X170000000Y-88000000D02*
X168000000Y-90000000D01*
X197625000Y-87160000D02*
X170840000Y-87160000D01*
X168000000Y-90000000D02*
X168000000Y-98000000D01*
%TO.N,Net-(J14-Pin_4)*%
X183300000Y-66000000D02*
X183300000Y-75147081D01*
X190232919Y-82080000D02*
X197625000Y-82080000D01*
X183300000Y-75147081D02*
X190232919Y-82080000D01*
%TO.N,Net-(J14-Pin_5)*%
X190368755Y-84620000D02*
X197625000Y-84620000D01*
X181550000Y-75801245D02*
X190368755Y-84620000D01*
X181550000Y-62670000D02*
X181550000Y-75801245D01*
X185840000Y-58380000D02*
X181550000Y-62670000D01*
%TO.N,Net-(J14-Pin_3)*%
X185840000Y-75147081D02*
X190232919Y-79540000D01*
X190232919Y-79540000D02*
X197625000Y-79540000D01*
X185840000Y-66000000D02*
X185840000Y-75147081D01*
%TO.N,Net-(U1-QE)*%
X192795000Y-112150000D02*
X194200000Y-110745000D01*
X172745000Y-104000000D02*
X180895000Y-112150000D01*
X180895000Y-112150000D02*
X192795000Y-112150000D01*
X156820000Y-104000000D02*
X172745000Y-104000000D01*
%TO.N,Net-(U1-QF)*%
X193400001Y-114084999D02*
X194200000Y-113285000D01*
X156820000Y-106540000D02*
X172880836Y-106540000D01*
X172880836Y-106540000D02*
X180425835Y-114084999D01*
X180425835Y-114084999D02*
X193400001Y-114084999D01*
%TO.N,Net-(ESP32_WROOM_KIT1-GPIO22)*%
X125060000Y-71940000D02*
X125060000Y-70000000D01*
X122000000Y-79404163D02*
X122000000Y-75000000D01*
X149700000Y-78000000D02*
X149700000Y-79202081D01*
X145902081Y-83000000D02*
X125595837Y-83000000D01*
X122000000Y-75000000D02*
X125060000Y-71940000D01*
X149700000Y-79202081D02*
X145902081Y-83000000D01*
X125595837Y-83000000D02*
X122000000Y-79404163D01*
%TO.N,Net-(ESP32_WROOM_KIT1-GPIO18)*%
X140300000Y-71414213D02*
X140300000Y-70000000D01*
X141340000Y-77260000D02*
X141340000Y-72454213D01*
X141340000Y-72454213D02*
X140300000Y-71414213D01*
X142080000Y-78000000D02*
X141340000Y-77260000D01*
%TO.N,Net-(ESP32_WROOM_KIT1-GPIO4)*%
X147160000Y-78000000D02*
X147160000Y-75840000D01*
X150460000Y-72540000D02*
X150460000Y-70000000D01*
X147160000Y-75840000D02*
X150460000Y-72540000D01*
%TO.N,Net-(ESP32_WROOM_KIT1-GPIO19)*%
X137760000Y-77240000D02*
X137760000Y-70000000D01*
X137000000Y-78000000D02*
X137760000Y-77240000D01*
%TO.N,Net-(ESP32_WROOM_KIT1-GPIO23)*%
X126000000Y-81000000D02*
X143000000Y-81000000D01*
X122520000Y-71480000D02*
X122520000Y-70000000D01*
X144620000Y-79380000D02*
X144620000Y-78000000D01*
X143000000Y-81000000D02*
X144620000Y-79380000D01*
X122000000Y-72000000D02*
X122520000Y-71480000D01*
%TO.N,Net-(ESP32_WROOM_KIT1-GPIO15)*%
X158080000Y-70000000D02*
X158080000Y-71414213D01*
X139640000Y-73360000D02*
X139540000Y-73460000D01*
X156494213Y-73000000D02*
X155000000Y-73000000D01*
X139540000Y-73460000D02*
X139540000Y-78000000D01*
X158080000Y-71414213D02*
X156494213Y-73000000D01*
%TO.N,Net-(ESP32_WROOM_KIT1-GPIO5)*%
X143040000Y-70200000D02*
X142840000Y-70000000D01*
X152000000Y-75000000D02*
X152240000Y-75240000D01*
X143040000Y-74040000D02*
X143040000Y-70200000D01*
X152240000Y-75240000D02*
X152240000Y-78000000D01*
X144000000Y-75000000D02*
X143040000Y-74040000D01*
%TD*%
M02*
