M48
; DRILL file {KiCad 8.0.3} date 2025-03-24T19:08:44+0100
; FORMAT={-:-/ absolute / metric / decimal}
; #@! TF.CreationDate,2025-03-24T19:08:44+01:00
; #@! TF.GenerationSoftware,Kicad,Pcbnew,8.0.3
; #@! TF.FileFunction,Plated,1,2,PTH
FMAT,2
METRIC
; #@! TA.AperFunction,Plated,PTH,ViaDrill
T1C0.800
; #@! TA.AperFunction,Plated,PTH,ComponentDrill
T2C1.000
%
G90
G05
T1
X108.0Y-122.0
X115.0Y-125.0
X116.0Y-86.0
X123.0Y-81.0
X123.3Y-87.0
X127.0Y-81.0
X129.0Y-83.0
X129.0Y-121.0
X133.46Y-84.0
X134.0Y-75.0
X136.0Y-87.0
X138.0Y-121.0
X139.0Y-81.0
X139.0Y-119.0
X141.0Y-82.0
X142.0Y-86.0
X146.0Y-81.0
X162.0Y-115.0
T2
X105.445Y-125.0
X107.985Y-125.0
X110.525Y-125.0
X113.14Y-89.35
X113.14Y-114.65
X115.68Y-89.35
X115.68Y-114.65
X118.22Y-89.35
X118.22Y-114.65
X118.52Y-78.0
X118.92Y-125.0
X120.76Y-89.35
X120.76Y-114.65
X121.06Y-78.0
X121.46Y-125.0
X123.3Y-89.35
X123.3Y-114.65
X123.6Y-78.0
X124.0Y-125.0
X125.84Y-89.35
X125.84Y-114.65
X126.14Y-78.0
X128.38Y-89.35
X128.38Y-114.65
X128.68Y-78.0
X130.92Y-89.35
X130.92Y-114.65
X131.22Y-78.0
X133.46Y-89.35
X133.46Y-114.65
X133.76Y-78.0
X136.0Y-89.35
X136.0Y-114.65
X136.3Y-78.0
X138.54Y-89.35
X138.54Y-114.65
X138.84Y-78.0
X138.92Y-124.0
X141.08Y-89.35
X141.08Y-114.65
X141.38Y-78.0
X141.46Y-124.0
X143.62Y-89.35
X143.62Y-114.65
X143.92Y-78.0
X144.0Y-124.0
X146.16Y-89.35
X146.16Y-114.65
X146.46Y-78.0
X146.54Y-124.0
X148.7Y-89.35
X148.7Y-114.65
X149.0Y-78.0
X149.08Y-124.0
X151.24Y-89.35
X151.24Y-114.65
X151.54Y-78.0
X151.62Y-124.0
X153.78Y-89.35
X153.78Y-114.65
X156.32Y-89.35
X156.32Y-114.65
X158.86Y-89.35
X158.86Y-114.65
M30
