0
SECTION
2
HEADER
9
$INSUNITS
70
4
9
$ACADVER
1
AC1014
9
$HANDSEED
5
FFFF
0
ENDSEC
0
SECTION
2
TABLES
0
TABLE
2
VPORT
5
8
100
AcDbSymbolTable
0
ENDTAB
0
TABLE
2
LTYPE
5
5
100
AcDbSymbolTable
0
LTYPE
5
14
100
AcDbSymbolTableRecord
100
AcDbLinetypeTableRecord
2
BYBLOCK
70
0
0
LTYPE
5
15
100
AcDbSymbolTableRecord
100
AcDbLinetypeTableRecord
2
BYLAYER
70
0
0
LTYPE
5
16
100
AcDbSymbolTableRecord
100
AcDbLinetypeTableRecord
2
DASHED
70
0
3
Dashed __ __ __ __ __ __ __ __ __ __ __ __ __ _
72
65
73
2
40
0.75
49
0.5
74
0
49
-0.25
74
0
0
ENDTAB
0
TABLE
2
LAYER
5
2
100
AcDbSymbolTable
70
2
0
LAYER
5
50
100
AcDbSymbolTableRecord
100
AcDbLayerTableRecord
2
0
70
0
62
7
6
CONTINUOUS
0
ENDTAB
0
TABLE
2
STYLE
5
3
100
AcDbSymbolTable
70
1
0
STYLE
5
11
100
AcDbSymbolTableRecord
100
AcDbTextStyleTableRecord
2
STANDARD
70
0
0
ENDTAB
0
TABLE
2
VIEW
5
6
100
AcDbSymbolTable
70
0
0
ENDTAB
0
TABLE
2
UCS
5
7
100
AcDbSymbolTable
70
0
0
ENDTAB
0
TABLE
2
APPID
5
9
100
AcDbSymbolTable
70
2
0
APPID
5
12
100
AcDbSymbolTableRecord
100
AcDbRegAppTableRecord
2
ACAD
70
0
0
ENDTAB
0
TABLE
2
DIMSTYLE
5
A
100
AcDbSymbolTable
70
1
0
ENDTAB
0
TABLE
2
BLOCK_RECORD
5
1
100
AcDbSymbolTable
70
1
0
BLOCK_RECORD
5
1F
100
AcDbSymbolTableRecord
100
AcDbBlockTableRecord
2
*MODEL_SPACE
0
BLOCK_RECORD
5
1B
100
AcDbSymbolTableRecord
100
AcDbBlockTableRecord
2
*PAPER_SPACE
0
ENDTAB
0
ENDSEC
0
SECTION
2
BLOCKS
0
BLOCK
5
20
100
AcDbEntity
100
AcDbBlockBegin
2
*MODEL_SPACE
0
ENDBLK
5
21
100
AcDbEntity
100
AcDbBlockEnd
0
BLOCK
5
1C
100
AcDbEntity
100
AcDbBlockBegin
2
*PAPER_SPACE
0
ENDBLK
5
1D
100
AcDbEntity
100
AcDbBlockEnd
0
ENDSEC
0
SECTION
2
ENTITIES
0
CIRCLE
5
100
100
AcDbEntity
8
0
100
AcDbCircle
10
-114.99954472590325
20
49.300085612863654
30
0
40
2.5
210
0
220
-0
230
1
0
LWPOLYLINE
5
101
100
AcDbEntity
8
0
100
AcDbPolyline
90
4
70
1
43
0.0
10
4.0062148921308349
20
-0.86989233812161615
10
-40.104001228370038
20
15.356285087027196
10
-41.484952498491346
20
11.602224140591872
10
2.6252636217130298
20
-4.62395328444779
0
CIRCLE
5
102
100
AcDbEntity
8
0
100
AcDbCircle
10
-83.274334990765624
20
10.991978542969925
30
0
40
2.5
210
0
220
-0
230
1
0
LWPOLYLINE
5
103
100
AcDbEntity
8
0
100
AcDbPolyline
90
4
70
1
43
0.0
10
-157.66021158433503
20
42.981448795900548
10
-156.12971562015363
20
46.677065402588028
10
-199.55321074583367
20
64.660392988717831
10
-201.08370671022607
20
60.964776382117847
0
CIRCLE
5
104
100
AcDbEntity
8
0
100
AcDbCircle
10
-123.63049016478762
20
25.837204697873766
30
0
40
2.5
210
0
220
-0
230
1
0
LWPOLYLINE
5
105
100
AcDbEntity
8
0
100
AcDbPolyline
90
4
70
1
43
0.0
10
-1.1723523719359008
20
-14.947620886844852
10
0.20859889848194396
20
-11.193559940518668
10
-43.901617221722418
20
5.0326174845211575
10
-45.282568495840927
20
1.2785565287958471
0
CIRCLE
5
106
100
AcDbEntity
8
0
100
AcDbCircle
10
-74.643389552099251
20
34.454859458040104
30
0
40
2.5
210
0
220
-0
230
1
0
LWPOLYLINE
5
107
100
AcDbEntity
8
0
100
AcDbPolyline
90
4
70
1
43
0.0
10
-151.92085171865449
20
56.840011070978598
10
-195.34434685030814
20
74.823338643509899
10
-196.87484280851592
20
71.127722050421042
10
-153.45134768283606
20
53.144394464291111
0
CIRCLE
5
108
100
AcDbEntity
8
0
100
AcDbCircle
10
30.000000000005329
20
-19.999999999999325
30
0
40
11.000000000000036
210
0
220
-0
230
1
0
CIRCLE
5
109
100
AcDbEntity
8
0
100
AcDbCircle
10
89.4659649917281
20
-93.333478081999601
30
0
40
3.4999999999999791
210
0
220
-0
230
1
0
CIRCLE
5
110
100
AcDbEntity
8
0
100
AcDbCircle
10
75.607402716650114
20
-87.594118216318932
30
0
40
3.5000000000000058
210
0
220
-0
230
1
0
CIRCLE
5
111
100
AcDbEntity
8
0
100
AcDbCircle
10
61.74884044157217
20
-81.854758350638264
30
0
40
3.4999999999999964
210
0
220
-0
230
1
0
LWPOLYLINE
5
112
100
AcDbEntity
8
0
100
AcDbPolyline
90
13
70
1
43
0.0
10
94.87876659799295
20
-106.39875950917201
42
0.41421356237309503
10
104.02446359701366
20
-102.6097983847866
10
111.29431942687592
20
-85.055619503021148
42
0.41421356237309509
10
82.065190753045613
20
-14.503099796289929
10
39.565599776139848
20
3.0976037917972299
10
-185.27691743853424
20
85.807118682311611
42
0.40250435591333689
10
-197.96833713079292
20
80.248206226764282
10
-205.92200244561417
20
61.042864749626105
42
0.40250435591333561
10
-200.87689769913285
20
48.138580205703512
10
6.7682146722256249
20
-47.790720331446472
42
-0.09937260927897977
10
23.931585048992538
20
-60.327728730627669
10
40.493653453703331
20
-78.399720325363958
42
0.10951781168324141
10
59.642586873299443
20
-91.806111894094627
0
ENDSEC
0
SECTION
2
OBJECTS
0
DICTIONARY
5
C
100
AcDbDictionary
3
ACAD_GROUP
350
D
3
ACAD_MLINESTYLE
350
17
0
DICTIONARY
5
D
100
AcDbDictionary
0
DICTIONARY
5
1A
330
C
100
AcDbDictionary
0
DICTIONARY
5
17
100
AcDbDictionary
0
ENDSEC
0
EOF
