M48
; DRILL file {KiCad 8.0.3} date 2025-03-04T16:01:37+0100
; FORMAT={-:-/ absolute / metric / decimal}
; #@! TF.CreationDate,2025-03-04T16:01:37+01:00
; #@! TF.GenerationSoftware,Kicad,Pcbnew,8.0.3
; #@! TF.FileFunction,Plated,1,2,PTH
FMAT,2
METRIC
; #@! TA.AperFunction,Plated,PTH,ComponentDrill
T1C0.800
; #@! TA.AperFunction,Plated,PTH,ViaDrill
T2C1.000
; #@! TA.AperFunction,Plated,PTH,ComponentDrill
T3C1.000
%
G90
G05
T1
X131.2Y-49.125
X131.2Y-51.665
X131.2Y-54.205
X131.2Y-56.745
X131.2Y-59.285
X131.2Y-61.825
X131.2Y-64.365
X131.2Y-66.905
X138.82Y-49.125
X138.82Y-51.665
X138.82Y-54.205
X138.82Y-56.745
X138.82Y-59.285
X138.82Y-61.825
X138.82Y-64.365
X138.82Y-66.905
X146.76Y-74.54
X146.76Y-77.08
X146.76Y-79.62
X146.76Y-82.16
X146.76Y-84.7
X146.76Y-87.24
X146.76Y-89.78
X146.76Y-92.32
X151.38Y-42.92
X151.38Y-45.46
X151.38Y-48.0
X151.38Y-50.54
X151.38Y-53.08
X151.38Y-55.62
X151.38Y-58.16
X151.38Y-60.7
X154.38Y-74.54
X154.38Y-77.08
X154.38Y-79.62
X154.38Y-82.16
X154.38Y-84.7
X154.38Y-87.24
X154.38Y-89.78
X154.38Y-92.32
X159.0Y-42.92
X159.0Y-45.46
X159.0Y-48.0
X159.0Y-50.54
X159.0Y-53.08
X159.0Y-55.62
X159.0Y-58.16
X159.0Y-60.7
X164.38Y-58.08
X164.38Y-60.62
X164.38Y-63.16
X164.38Y-65.7
X164.38Y-68.24
X164.38Y-70.78
X164.38Y-73.32
X164.38Y-75.86
X172.0Y-58.08
X172.0Y-60.62
X172.0Y-63.16
X172.0Y-65.7
X172.0Y-68.24
X172.0Y-70.78
X172.0Y-73.32
X172.0Y-75.86
T2
X126.0Y-56.0
X130.0Y-46.0
X133.0Y-66.905
X136.0Y-67.0
X139.38Y-74.62
X141.0Y-49.0
X145.0Y-94.0
X149.0Y-48.0
X151.366Y-39.963
X152.38Y-74.62
X157.0Y-58.0
X157.0Y-60.62
X157.38Y-77.62
X157.38Y-89.62
X159.38Y-75.62
X159.38Y-81.62
X162.0Y-43.0
X164.0Y-40.0
X167.38Y-72.62
X167.38Y-84.62
X169.38Y-72.62
X169.384Y-87.193
X170.0Y-55.0
X173.38Y-63.155
X174.38Y-75.62
X176.758Y-65.973
X177.543Y-82.471
X179.0Y-73.0
X179.38Y-58.62
X179.38Y-63.46
X179.38Y-79.62
X185.0Y-74.0
T3
X125.125Y-33.0
X127.665Y-33.0
X130.205Y-33.0
X131.38Y-70.947
X131.38Y-73.487
X131.38Y-76.027
X131.38Y-78.567
X131.38Y-81.107
X131.38Y-83.647
X131.38Y-86.187
X131.38Y-88.727
X131.38Y-91.267
X131.38Y-93.807
X132.745Y-33.0
X135.285Y-33.0
X137.825Y-33.0
X140.365Y-33.0
X142.905Y-33.0
X168.0Y-32.84
X168.0Y-35.38
X168.0Y-37.92
X168.0Y-40.46
X168.0Y-43.0
X168.0Y-45.54
X168.0Y-48.08
X181.38Y-63.46
X181.38Y-66.0
X181.38Y-68.54
X181.38Y-71.08
X181.38Y-73.62
X181.38Y-76.16
X181.38Y-82.54
X181.38Y-85.08
X181.38Y-87.62
X181.38Y-90.16
X181.38Y-92.7
M30
