%TF.GenerationSoftware,KiCad,Pcbnew,8.0.3*%
%TF.CreationDate,2025-02-04T16:17:40+01:00*%
%TF.ProjectId,Esp32-card,45737033-322d-4636-9172-642e6b696361,rev?*%
%TF.SameCoordinates,Original*%
%TF.FileFunction,Copper,L1,Top*%
%TF.FilePolarity,Positive*%
%FSLAX46Y46*%
G04 Gerber Fmt 4.6, Leading zero omitted, Abs format (unit mm)*
G04 Created by KiCad (PCBNEW 8.0.3) date 2025-02-04 16:17:40*
%MOMM*%
%LPD*%
G01*
G04 APERTURE LIST*
%TA.AperFunction,ComponentPad*%
%ADD10R,1.700000X1.700000*%
%TD*%
%TA.AperFunction,ComponentPad*%
%ADD11O,1.700000X1.700000*%
%TD*%
%TA.AperFunction,ComponentPad*%
%ADD12R,1.600000X1.600000*%
%TD*%
%TA.AperFunction,ComponentPad*%
%ADD13O,1.600000X1.600000*%
%TD*%
%TA.AperFunction,ComponentPad*%
%ADD14C,1.600000*%
%TD*%
%TA.AperFunction,ComponentPad*%
%ADD15C,2.000000*%
%TD*%
%TA.AperFunction,ViaPad*%
%ADD16C,1.200000*%
%TD*%
%TA.AperFunction,ViaPad*%
%ADD17C,1.000000*%
%TD*%
%TA.AperFunction,Conductor*%
%ADD18C,1.500000*%
%TD*%
G04 APERTURE END LIST*
D10*
%TO.P,J7,1,Pin_1*%
%TO.N,T_IRQ*%
X156160000Y-36000000D03*
D11*
%TO.P,J7,2,Pin_2*%
%TO.N,T_DO*%
X153620000Y-36000000D03*
%TO.P,J7,3,Pin_3*%
%TO.N,T_DIN*%
X151080000Y-36000000D03*
%TO.P,J7,4,Pin_4*%
%TO.N,T_CS*%
X148540000Y-36000000D03*
%TO.P,J7,5,Pin_5*%
%TO.N,TS_CLK*%
X146000000Y-36000000D03*
%TO.P,J7,6,Pin_6*%
%TO.N,MISO*%
X143460000Y-36000000D03*
%TO.P,J7,7,Pin_7*%
%TO.N,LED*%
X140920000Y-36000000D03*
%TO.P,J7,8,Pin_8*%
%TO.N,SCK*%
X138380000Y-36000000D03*
%TO.P,J7,9,Pin_9*%
%TO.N,MOSI*%
X135840000Y-36000000D03*
%TO.P,J7,10,Pin_10*%
%TO.N,DC*%
X133300000Y-36000000D03*
%TO.P,J7,11,Pin_11*%
%TO.N,RESET*%
X130760000Y-36000000D03*
%TO.P,J7,12,Pin_12*%
%TO.N,CS*%
X128220000Y-36000000D03*
%TO.P,J7,13,Pin_13*%
%TO.N,GND*%
X125680000Y-36000000D03*
%TO.P,J7,14,Pin_14*%
%TO.N,3v3*%
X123140000Y-36000000D03*
%TD*%
D12*
%TO.P,U4,1,A4*%
%TO.N,Capteur_Hall_1*%
X149200000Y-91300000D03*
D13*
%TO.P,U4,2,A6*%
%TO.N,Capteur_Autre_1*%
X149200000Y-93840000D03*
%TO.P,U4,3,A*%
%TO.N,Analog_Pin1*%
X149200000Y-96380000D03*
%TO.P,U4,4,A7*%
%TO.N,Capteur_Autre_2*%
X149200000Y-98920000D03*
%TO.P,U4,5,A5*%
%TO.N,Capteur_Hall_2*%
X149200000Y-101460000D03*
%TO.P,U4,6,~{E}*%
%TO.N,GND*%
X149200000Y-104000000D03*
%TO.P,U4,7,VEE*%
X149200000Y-106540000D03*
%TO.P,U4,8,GND*%
X149200000Y-109080000D03*
%TO.P,U4,9,S2*%
%TO.N,Net-(U1-QG)*%
X156820000Y-109080000D03*
%TO.P,U4,10,S1*%
%TO.N,Net-(U1-QF)*%
X156820000Y-106540000D03*
%TO.P,U4,11,S0*%
%TO.N,Net-(U1-QE)*%
X156820000Y-104000000D03*
%TO.P,U4,12,A3*%
%TO.N,Capteur_Force_3*%
X156820000Y-101460000D03*
%TO.P,U4,13,A0*%
%TO.N,Net-(J14-Pin_6)*%
X156820000Y-98920000D03*
%TO.P,U4,14,A1*%
%TO.N,Capteur_Force_1*%
X156820000Y-96380000D03*
%TO.P,U4,15,A2*%
%TO.N,Capteur_Force_2*%
X156820000Y-93840000D03*
%TO.P,U4,16,VCC*%
%TO.N,3v3*%
X156820000Y-91300000D03*
%TD*%
D12*
%TO.P,U1,1,QB*%
%TO.N,M1_Pin_Dir2*%
X194200000Y-103125000D03*
D13*
%TO.P,U1,2,QC*%
%TO.N,M2_Pin_Dir1*%
X194200000Y-105665000D03*
%TO.P,U1,3,QD*%
%TO.N,M2_Pin_Dir2*%
X194200000Y-108205000D03*
%TO.P,U1,4,QE*%
%TO.N,Net-(U1-QE)*%
X194200000Y-110745000D03*
%TO.P,U1,5,QF*%
%TO.N,Net-(U1-QF)*%
X194200000Y-113285000D03*
%TO.P,U1,6,QG*%
%TO.N,Net-(U1-QG)*%
X194200000Y-115825000D03*
%TO.P,U1,7,QH*%
%TO.N,unconnected-(U1-QH-Pad7)*%
X194200000Y-118365000D03*
%TO.P,U1,8,GND*%
%TO.N,GND*%
X194200000Y-120905000D03*
%TO.P,U1,9,QH'*%
%TO.N,Net-(U1-QH')*%
X201820000Y-120905000D03*
%TO.P,U1,10,~{SRCLR}*%
%TO.N,3v3*%
X201820000Y-118365000D03*
%TO.P,U1,11,SRCLK*%
%TO.N,Clock*%
X201820000Y-115825000D03*
%TO.P,U1,12,RCLK*%
%TO.N,Trig*%
X201820000Y-113285000D03*
%TO.P,U1,13,~{OE}*%
%TO.N,GND*%
X201820000Y-110745000D03*
%TO.P,U1,14,SER*%
%TO.N,Data*%
X201820000Y-108205000D03*
%TO.P,U1,15,QA*%
%TO.N,M1_Pin_Dir1*%
X201820000Y-105665000D03*
%TO.P,U1,16,VCC*%
%TO.N,3v3*%
X201820000Y-103125000D03*
%TD*%
D10*
%TO.P,J2,1,Pin_1*%
%TO.N,5v*%
X128375000Y-90275000D03*
D11*
%TO.P,J2,2,Pin_2*%
%TO.N,Capteur_Force_1*%
X128375000Y-87735000D03*
%TD*%
D10*
%TO.P,J12,1,Pin_1*%
%TO.N,3v3*%
X187460000Y-48000000D03*
D11*
%TO.P,J12,2,Pin_2*%
%TO.N,GND*%
X190000000Y-48000000D03*
%TO.P,J12,3,Pin_3*%
%TO.N,Trig*%
X192540000Y-48000000D03*
%TO.P,J12,4,Pin_4*%
%TO.N,Clock*%
X195080000Y-48000000D03*
%TO.P,J12,5,Pin_5*%
%TO.N,Net-(J12-Pin_5)*%
X197620000Y-48000000D03*
%TD*%
D10*
%TO.P,J14,1,Pin_1*%
%TO.N,3v3*%
X197625000Y-74460000D03*
D11*
%TO.P,J14,2,Pin_2*%
%TO.N,GND*%
X197625000Y-77000000D03*
%TO.P,J14,3,Pin_3*%
%TO.N,Net-(J14-Pin_3)*%
X197625000Y-79540000D03*
%TO.P,J14,4,Pin_4*%
%TO.N,Net-(J14-Pin_4)*%
X197625000Y-82080000D03*
%TO.P,J14,5,Pin_5*%
%TO.N,Net-(J14-Pin_5)*%
X197625000Y-84620000D03*
%TO.P,J14,6,Pin_6*%
%TO.N,Net-(J14-Pin_6)*%
X197625000Y-87160000D03*
%TD*%
D10*
%TO.P,J13,1,Pin_1*%
%TO.N,5v*%
X128375000Y-118275000D03*
D11*
%TO.P,J13,2,Pin_2*%
%TO.N,Capteur_Autre_2*%
X128375000Y-115735000D03*
%TD*%
D10*
%TO.P,J3,1,Pin_1*%
%TO.N,5v*%
X128375000Y-97275000D03*
D11*
%TO.P,J3,2,Pin_2*%
%TO.N,Capteur_Force_2*%
X128375000Y-94735000D03*
%TD*%
D10*
%TO.P,J11,1,Pin_1*%
%TO.N,5v*%
X128375000Y-111275000D03*
D11*
%TO.P,J11,2,Pin_2*%
%TO.N,Capteur_Autre_1*%
X128375000Y-108735000D03*
%TD*%
D14*
%TO.P,R2,1*%
%TO.N,GND*%
X141000000Y-95000000D03*
D13*
%TO.P,R2,2*%
%TO.N,Capteur_Force_2*%
X133380000Y-95000000D03*
%TD*%
D10*
%TO.P,J8,1,Pin_1*%
%TO.N,M2_Pin_EN*%
X187000000Y-110350000D03*
D11*
%TO.P,J8,2,Pin_2*%
%TO.N,M2_Pin_Dir2*%
X187000000Y-107810000D03*
%TO.P,J8,3,Pin_3*%
%TO.N,M2_Pin_Dir1*%
X187000000Y-105270000D03*
%TO.P,J8,4,Pin_4*%
%TO.N,M1_Pin_Dir2*%
X187000000Y-102730000D03*
%TO.P,J8,5,Pin_5*%
%TO.N,M1_Pin_Dir1*%
X187000000Y-100190000D03*
%TO.P,J8,6,Pin_6*%
%TO.N,M1_Pin_EN*%
X187000000Y-97650000D03*
%TD*%
D14*
%TO.P,R5,1*%
%TO.N,GND*%
X140810000Y-116000000D03*
D13*
%TO.P,R5,2*%
%TO.N,Capteur_Autre_2*%
X133190000Y-116000000D03*
%TD*%
D14*
%TO.P,R3,1*%
%TO.N,GND*%
X140810000Y-101000000D03*
D13*
%TO.P,R3,2*%
%TO.N,Capteur_Force_3*%
X133190000Y-101000000D03*
%TD*%
D10*
%TO.P,J9,1,Pin_1*%
%TO.N,Net-(J9-Pin_1)*%
X198540000Y-70000000D03*
D11*
%TO.P,J9,2,Pin_2*%
%TO.N,Net-(J9-Pin_2)*%
X196000000Y-70000000D03*
%TO.P,J9,3,Pin_3*%
%TO.N,Net-(J9-Pin_3)*%
X193460000Y-70000000D03*
%TO.P,J9,4,Pin_4*%
%TO.N,Net-(J9-Pin_4)*%
X190920000Y-70000000D03*
%TO.P,J9,5,Pin_5*%
%TO.N,Net-(J9-Pin_5)*%
X188380000Y-70000000D03*
%TD*%
D12*
%TO.P,U2,1,QB*%
%TO.N,Net-(J14-Pin_4)*%
X183300000Y-66000000D03*
D13*
%TO.P,U2,2,QC*%
%TO.N,Net-(J14-Pin_3)*%
X185840000Y-66000000D03*
%TO.P,U2,3,QD*%
%TO.N,Net-(J9-Pin_5)*%
X188380000Y-66000000D03*
%TO.P,U2,4,QE*%
%TO.N,Net-(J9-Pin_4)*%
X190920000Y-66000000D03*
%TO.P,U2,5,QF*%
%TO.N,Net-(J9-Pin_3)*%
X193460000Y-66000000D03*
%TO.P,U2,6,QG*%
%TO.N,Net-(J9-Pin_2)*%
X196000000Y-66000000D03*
%TO.P,U2,7,QH*%
%TO.N,Net-(J9-Pin_1)*%
X198540000Y-66000000D03*
%TO.P,U2,8,GND*%
%TO.N,GND*%
X201080000Y-66000000D03*
%TO.P,U2,9,QH'*%
%TO.N,Net-(J12-Pin_5)*%
X201080000Y-58380000D03*
%TO.P,U2,10,~{SRCLR}*%
%TO.N,3v3*%
X198540000Y-58380000D03*
%TO.P,U2,11,SRCLK*%
%TO.N,Clock*%
X196000000Y-58380000D03*
%TO.P,U2,12,RCLK*%
%TO.N,Trig*%
X193460000Y-58380000D03*
%TO.P,U2,13,~{OE}*%
%TO.N,GND*%
X190920000Y-58380000D03*
%TO.P,U2,14,SER*%
%TO.N,Net-(U1-QH')*%
X188380000Y-58380000D03*
%TO.P,U2,15,QA*%
%TO.N,Net-(J14-Pin_5)*%
X185840000Y-58380000D03*
%TO.P,U2,16,VCC*%
%TO.N,3v3*%
X183300000Y-58380000D03*
%TD*%
D10*
%TO.P,J4,1,Pin_1*%
%TO.N,3v3*%
X160525000Y-115625000D03*
D11*
%TO.P,J4,2,Pin_2*%
%TO.N,Capteur_Hall_1*%
X157985000Y-115625000D03*
%TO.P,J4,3,Pin_3*%
%TO.N,GND*%
X155445000Y-115625000D03*
%TD*%
D10*
%TO.P,J6,1,Pin_1*%
%TO.N,GND*%
X137000000Y-123000000D03*
D11*
%TO.P,J6,2,Pin_2*%
%TO.N,5v*%
X134460000Y-123000000D03*
%TD*%
D14*
%TO.P,R1,1*%
%TO.N,GND*%
X140620000Y-88000000D03*
D13*
%TO.P,R1,2*%
%TO.N,Capteur_Force_1*%
X133000000Y-88000000D03*
%TD*%
D14*
%TO.P,R4,1*%
%TO.N,GND*%
X141000000Y-109000000D03*
D13*
%TO.P,R4,2*%
%TO.N,Capteur_Autre_1*%
X133380000Y-109000000D03*
%TD*%
D10*
%TO.P,J10,1,Pin_1*%
%TO.N,5v*%
X128375000Y-104275000D03*
D11*
%TO.P,J10,2,Pin_2*%
%TO.N,Capteur_Force_3*%
X128375000Y-101735000D03*
%TD*%
D10*
%TO.P,J5,1,Pin_1*%
%TO.N,3v3*%
X150525000Y-115625000D03*
D11*
%TO.P,J5,2,Pin_2*%
%TO.N,Capteur_Hall_2*%
X147985000Y-115625000D03*
%TO.P,J5,3,Pin_3*%
%TO.N,GND*%
X145445000Y-115625000D03*
%TD*%
D15*
%TO.P,ESP32_WROOM_KIT2,1,3v3*%
%TO.N,3v3*%
X120140000Y-74300000D03*
%TO.P,ESP32_WROOM_KIT2,2,EN*%
%TO.N,unconnected-(ESP32_WROOM_KIT2-EN-Pad2)*%
X122680000Y-74300000D03*
%TO.P,ESP32_WROOM_KIT2,3,GPIO36*%
%TO.N,unconnected-(ESP32_WROOM_KIT2-GPIO36-Pad3)*%
X125220000Y-74300000D03*
%TO.P,ESP32_WROOM_KIT2,4,GPIO39*%
%TO.N,unconnected-(ESP32_WROOM_KIT2-GPIO39-Pad4)*%
X127760000Y-74300000D03*
%TO.P,ESP32_WROOM_KIT2,5,GPIO34*%
%TO.N,unconnected-(ESP32_WROOM_KIT2-GPIO34-Pad5)*%
X130300000Y-74300000D03*
%TO.P,ESP32_WROOM_KIT2,6,GPIO35*%
%TO.N,unconnected-(ESP32_WROOM_KIT2-GPIO35-Pad6)*%
X132840000Y-74300000D03*
%TO.P,ESP32_WROOM_KIT2,7,GPIO32*%
%TO.N,unconnected-(ESP32_WROOM_KIT2-GPIO32-Pad7)*%
X135380000Y-74300000D03*
%TO.P,ESP32_WROOM_KIT2,8,GPIO33*%
%TO.N,Analog_Pin1*%
X137920000Y-74300000D03*
%TO.P,ESP32_WROOM_KIT2,9,GPIO25*%
%TO.N,Data*%
X140460000Y-74300000D03*
%TO.P,ESP32_WROOM_KIT2,10,GPIO26*%
%TO.N,Clock*%
X143000000Y-74300000D03*
%TO.P,ESP32_WROOM_KIT2,11,GPIO27*%
%TO.N,Trig*%
X145540000Y-74300000D03*
%TO.P,ESP32_WROOM_KIT2,12,GPIO14*%
%TO.N,M2_Pin_EN*%
X148080000Y-74300000D03*
%TO.P,ESP32_WROOM_KIT2,13,GPIO12*%
%TO.N,M1_Pin_EN*%
X150620000Y-74300000D03*
%TO.P,ESP32_WROOM_KIT2,14,GND*%
%TO.N,unconnected-(ESP32_WROOM_KIT2-GND-Pad14)*%
X153160000Y-74300000D03*
%TO.P,ESP32_WROOM_KIT2,15,GPIO13*%
%TO.N,unconnected-(ESP32_WROOM_KIT2-GPIO13-Pad15)*%
X155700000Y-74300000D03*
%TO.P,ESP32_WROOM_KIT2,16,GPIO9*%
%TO.N,unconnected-(ESP32_WROOM_KIT2-GPIO9-Pad16)*%
X158240000Y-74300000D03*
%TO.P,ESP32_WROOM_KIT2,17,GPIO10*%
%TO.N,unconnected-(ESP32_WROOM_KIT2-GPIO10-Pad17)*%
X160780000Y-74300000D03*
%TO.P,ESP32_WROOM_KIT2,18,GPIO11*%
%TO.N,unconnected-(ESP32_WROOM_KIT2-GPIO11-Pad18)*%
X163320000Y-74300000D03*
%TO.P,ESP32_WROOM_KIT2,19,5V*%
%TO.N,5v*%
X165860000Y-74300000D03*
%TO.P,ESP32_WROOM_KIT2,20,GND*%
%TO.N,GND*%
X120140000Y-49000000D03*
%TO.P,ESP32_WROOM_KIT2,21,GPIO23*%
%TO.N,MOSI*%
X122680000Y-49000000D03*
%TO.P,ESP32_WROOM_KIT2,22,GPIO22*%
%TO.N,RESET*%
X125220000Y-49000000D03*
%TO.P,ESP32_WROOM_KIT2,23,TXD*%
%TO.N,unconnected-(ESP32_WROOM_KIT2-TXD-Pad23)*%
X127760000Y-49000000D03*
%TO.P,ESP32_WROOM_KIT2,24*%
%TO.N,N/C*%
X130300000Y-49000000D03*
%TO.P,ESP32_WROOM_KIT2,25,GPIO21*%
%TO.N,unconnected-(ESP32_WROOM_KIT2-GPIO21-Pad25)*%
X132840000Y-49000000D03*
%TO.P,ESP32_WROOM_KIT2,26,GND*%
%TO.N,unconnected-(ESP32_WROOM_KIT2-GND-Pad26)*%
X135380000Y-49000000D03*
%TO.P,ESP32_WROOM_KIT2,27,GPIO19*%
%TO.N,MISO*%
X137920000Y-49000000D03*
%TO.P,ESP32_WROOM_KIT2,28,GPIO18*%
%TO.N,SCK*%
X140460000Y-49000000D03*
%TO.P,ESP32_WROOM_KIT2,29,GPIO5*%
%TO.N,CS*%
X143000000Y-49000000D03*
%TO.P,ESP32_WROOM_KIT2,30,GPIO17*%
%TO.N,unconnected-(ESP32_WROOM_KIT2-GPIO17-Pad30)*%
X145540000Y-49000000D03*
%TO.P,ESP32_WROOM_KIT2,31,GPIO16*%
%TO.N,unconnected-(ESP32_WROOM_KIT2-GPIO16-Pad31)*%
X148080000Y-49000000D03*
%TO.P,ESP32_WROOM_KIT2,32,GPIO4*%
%TO.N,DC*%
X150620000Y-49000000D03*
%TO.P,ESP32_WROOM_KIT2,33,GPIO0*%
%TO.N,unconnected-(ESP32_WROOM_KIT2-GPIO0-Pad33)*%
X153160000Y-49000000D03*
%TO.P,ESP32_WROOM_KIT2,34,GPIO2*%
%TO.N,unconnected-(ESP32_WROOM_KIT2-GPIO2-Pad34)*%
X155700000Y-49000000D03*
%TO.P,ESP32_WROOM_KIT2,35,GPIO15*%
%TO.N,LED*%
X158240000Y-49000000D03*
%TO.P,ESP32_WROOM_KIT2,36,SD1*%
%TO.N,unconnected-(ESP32_WROOM_KIT2-SD1-Pad36)*%
X160780000Y-49000000D03*
%TO.P,ESP32_WROOM_KIT2,37,SD0*%
%TO.N,unconnected-(ESP32_WROOM_KIT2-SD0-Pad37)*%
X163320000Y-49000000D03*
%TO.P,ESP32_WROOM_KIT2,38,CLK*%
%TO.N,unconnected-(ESP32_WROOM_KIT2-CLK-Pad38)*%
X165860000Y-49000000D03*
%TD*%
D16*
%TO.N,Clock*%
X182000000Y-44000000D03*
X155000000Y-79000000D03*
X162189038Y-83201935D03*
X186000000Y-85000000D03*
X186000000Y-92000000D03*
%TO.N,Trig*%
X149000000Y-70000000D03*
X159000000Y-60000000D03*
X165000000Y-54000000D03*
X173811558Y-46227375D03*
%TO.N,Data*%
X141000000Y-70000000D03*
%TO.N,3v3*%
X126000000Y-64000000D03*
X141000000Y-64000000D03*
X164000000Y-64000000D03*
X171000000Y-90000000D03*
%TO.N,Analog_Pin1*%
X137000000Y-78000000D03*
X133000000Y-98000000D03*
%TO.N,DC*%
X136000000Y-41000000D03*
X149000000Y-47000000D03*
%TO.N,SCK*%
X155000000Y-44000000D03*
X139000000Y-34000000D03*
%TO.N,MOSI*%
X123000000Y-47000000D03*
X136000000Y-38000000D03*
%TO.N,RESET*%
X126000000Y-40000000D03*
X131000000Y-38000000D03*
%TO.N,CS*%
X131000000Y-43000000D03*
X142000000Y-47000000D03*
D17*
%TO.N,Data*%
X176000000Y-92000000D03*
%TO.N,Trig*%
X182800000Y-46200000D03*
X204000000Y-113000000D03*
%TO.N,Clock*%
X178000000Y-92000000D03*
%TO.N,3v3*%
X198347500Y-99652500D03*
X198000000Y-55000000D03*
X166000000Y-102000000D03*
X206000000Y-118000000D03*
X183300000Y-55000000D03*
%TO.N,GND*%
X205000000Y-66000000D03*
X158000000Y-112000000D03*
X184000000Y-81000000D03*
X190000000Y-75000000D03*
%TO.N,M1_Pin_EN*%
X175000000Y-98000000D03*
%TO.N,Net-(U1-QH')*%
X187000000Y-53000000D03*
X184000000Y-123000000D03*
%TO.N,M2_Pin_EN*%
X170000000Y-102000000D03*
%TO.N,Capteur_Force_1*%
X164000000Y-96000000D03*
%TO.N,Capteur_Force_2*%
X162000000Y-89000000D03*
%TO.N,Capteur_Force_3*%
X162000000Y-99000000D03*
%TO.N,Capteur_Autre_1*%
X146000000Y-94000000D03*
%TO.N,Net-(J14-Pin_6)*%
X168000000Y-98000000D03*
X159000000Y-99000000D03*
%TD*%
D18*
%TO.N,GND*%
X184000000Y-81000000D02*
X190000000Y-75000000D01*
%TO.N,Clock*%
X180000000Y-44000000D02*
X182000000Y-44000000D01*
X178000000Y-46000000D02*
X180000000Y-44000000D01*
X178000000Y-55000000D02*
X178000000Y-46000000D01*
X178000000Y-92000000D02*
X178000000Y-55000000D01*
X157987103Y-79000000D02*
X155000000Y-79000000D01*
X162189038Y-83201935D02*
X157987103Y-79000000D01*
X186000000Y-92000000D02*
X186000000Y-85000000D01*
%TO.N,Trig*%
X159000000Y-60000000D02*
X149000000Y-70000000D01*
X172772625Y-46227375D02*
X165000000Y-54000000D01*
X173811558Y-46227375D02*
X172772625Y-46227375D01*
%TO.N,Data*%
X154000000Y-57000000D02*
X171404164Y-57000000D01*
X141000000Y-70000000D02*
X154000000Y-57000000D01*
%TO.N,3v3*%
X141000000Y-64000000D02*
X126000000Y-64000000D01*
X165317717Y-65317717D02*
X164000000Y-64000000D01*
X165317717Y-71000000D02*
X165317717Y-65317717D01*
X167810000Y-73492283D02*
X165317717Y-71000000D01*
X167810000Y-86810000D02*
X167810000Y-73492283D01*
X171000000Y-90000000D02*
X167810000Y-86810000D01*
%TO.N,Analog_Pin1*%
X134000000Y-78000000D02*
X137000000Y-78000000D01*
X132500000Y-79500000D02*
X134000000Y-78000000D01*
X126575000Y-85425000D02*
X132500000Y-79500000D01*
X126575000Y-99075000D02*
X126575000Y-85425000D01*
X131925000Y-99075000D02*
X126575000Y-99075000D01*
X133000000Y-98000000D02*
X131925000Y-99075000D01*
%TO.N,M1_Pin_EN*%
X161505787Y-62000000D02*
X174000000Y-62000000D01*
X150620000Y-72885787D02*
X161505787Y-62000000D01*
X150620000Y-74300000D02*
X150620000Y-72885787D01*
%TO.N,M2_Pin_EN*%
X148080000Y-75080000D02*
X148080000Y-74300000D01*
X166000000Y-84000000D02*
X158250000Y-76250000D01*
X166000000Y-84000000D02*
X166000000Y-93595837D01*
X158250000Y-76250000D02*
X149250000Y-76250000D01*
X149250000Y-76250000D02*
X148080000Y-75080000D01*
%TO.N,DC*%
X143000000Y-41000000D02*
X136000000Y-41000000D01*
X149000000Y-47000000D02*
X143000000Y-41000000D01*
%TO.N,SCK*%
X162000000Y-37000000D02*
X155000000Y-44000000D01*
X140000000Y-34000000D02*
X140750000Y-33250000D01*
X162000000Y-33250000D02*
X162000000Y-37000000D01*
X139000000Y-34000000D02*
X140000000Y-34000000D01*
X140750000Y-33250000D02*
X162000000Y-33250000D01*
%TO.N,MOSI*%
X133595836Y-38000000D02*
X124595836Y-47000000D01*
X124595836Y-47000000D02*
X123000000Y-47000000D01*
X136000000Y-38000000D02*
X133595836Y-38000000D01*
%TO.N,RESET*%
X129000000Y-40000000D02*
X131000000Y-38000000D01*
X126000000Y-40000000D02*
X129000000Y-40000000D01*
%TO.N,CS*%
X133000000Y-45000000D02*
X131000000Y-43000000D01*
X140000000Y-45000000D02*
X133000000Y-45000000D01*
X142000000Y-47000000D02*
X140000000Y-45000000D01*
%TO.N,Data*%
X176000000Y-61595836D02*
X171404164Y-57000000D01*
X176000000Y-92000000D02*
X176000000Y-61595836D01*
%TO.N,Trig*%
X204000000Y-121199874D02*
X204000000Y-113000000D01*
X182800000Y-46200000D02*
X182800000Y-48350000D01*
X183595836Y-125000000D02*
X200199874Y-125000000D01*
X182800000Y-48350000D02*
X179850000Y-51300000D01*
X179850000Y-121254164D02*
X183595836Y-125000000D01*
X179850000Y-51300000D02*
X179850000Y-121254164D01*
X200199874Y-125000000D02*
X204000000Y-121199874D01*
%TO.N,3v3*%
X197619415Y-74460000D02*
X197625000Y-74460000D01*
X206000000Y-103000000D02*
X206000000Y-118000000D01*
X202830000Y-55830000D02*
X202000000Y-55000000D01*
X198000000Y-55000000D02*
X183300000Y-55000000D01*
X204000000Y-101000000D02*
X206000000Y-103000000D01*
X198347500Y-99652500D02*
X198695000Y-100000000D01*
X202000000Y-55000000D02*
X198000000Y-55000000D01*
X160525000Y-115625000D02*
X160525000Y-115630585D01*
X197625000Y-74460000D02*
X202830000Y-69255000D01*
X204000000Y-101000000D02*
X195825000Y-92825000D01*
X166000000Y-102000000D02*
X160525000Y-107475000D01*
X195825000Y-92825000D02*
X195825000Y-76254415D01*
X203000000Y-100000000D02*
X204000000Y-101000000D01*
X202830000Y-69255000D02*
X202830000Y-55830000D01*
X198695000Y-100000000D02*
X203000000Y-100000000D01*
X152325000Y-117425000D02*
X150525000Y-115625000D01*
X160525000Y-115630585D02*
X158730585Y-117425000D01*
X160525000Y-107475000D02*
X160525000Y-115625000D01*
X195825000Y-76254415D02*
X197619415Y-74460000D01*
X158730585Y-117425000D02*
X152325000Y-117425000D01*
%TO.N,GND*%
X197625000Y-77000000D02*
X198685000Y-77000000D01*
X205000000Y-70685000D02*
X205000000Y-66000000D01*
X140810000Y-116000000D02*
X145070000Y-116000000D01*
X141000000Y-100810000D02*
X140810000Y-101000000D01*
X145070000Y-116000000D02*
X145445000Y-115625000D01*
X158000000Y-111867919D02*
X157867919Y-112000000D01*
X198685000Y-77000000D02*
X205000000Y-70685000D01*
X140620000Y-88000000D02*
X140620000Y-94620000D01*
X141000000Y-115810000D02*
X140810000Y-116000000D01*
X140620000Y-94620000D02*
X141000000Y-95000000D01*
X155445000Y-115625000D02*
X155445000Y-114422919D01*
X141000000Y-95000000D02*
X141000000Y-100810000D01*
X155445000Y-114422919D02*
X157867919Y-112000000D01*
X140810000Y-108810000D02*
X141000000Y-109000000D01*
X157867919Y-112000000D02*
X158000000Y-112000000D01*
X158000000Y-112000000D02*
X158000000Y-111867919D01*
X141000000Y-109000000D02*
X141000000Y-115810000D01*
%TO.N,M1_Pin_EN*%
X175000000Y-98000000D02*
X174000000Y-97000000D01*
X174000000Y-97000000D02*
X174000000Y-62000000D01*
%TO.N,Net-(U1-QH')*%
X181550000Y-54345837D02*
X181550000Y-120550000D01*
X182895837Y-53000000D02*
X181550000Y-54345837D01*
X187000000Y-53000000D02*
X182895837Y-53000000D01*
X181550000Y-120550000D02*
X184000000Y-123000000D01*
%TO.N,M2_Pin_EN*%
X170000000Y-97595837D02*
X170000000Y-102000000D01*
X166000000Y-93595837D02*
X170000000Y-97595837D01*
%TO.N,Capteur_Force_1*%
X157404164Y-82000000D02*
X164000000Y-88595836D01*
X139000000Y-82000000D02*
X156000000Y-82000000D01*
X164000000Y-88595836D02*
X164000000Y-96000000D01*
X132735000Y-87735000D02*
X133000000Y-88000000D01*
X156000000Y-82000000D02*
X157404164Y-82000000D01*
X133000000Y-88000000D02*
X139000000Y-82000000D01*
X128375000Y-87735000D02*
X132735000Y-87735000D01*
%TO.N,Capteur_Force_2*%
X157000000Y-84000000D02*
X162000000Y-89000000D01*
X128375000Y-94735000D02*
X133115000Y-94735000D01*
X133115000Y-94735000D02*
X133380000Y-95000000D01*
X135000000Y-95000000D02*
X136000000Y-94000000D01*
X136000000Y-87595836D02*
X139595836Y-84000000D01*
X133380000Y-95000000D02*
X135000000Y-95000000D01*
X136000000Y-94000000D02*
X136000000Y-88000000D01*
X136000000Y-88000000D02*
X136000000Y-87595836D01*
X139595836Y-84000000D02*
X156000000Y-84000000D01*
X156000000Y-84000000D02*
X157000000Y-84000000D01*
%TO.N,Capteur_Force_3*%
X138000000Y-88000000D02*
X140000000Y-86000000D01*
X133190000Y-101000000D02*
X138000000Y-96190000D01*
X140000000Y-86000000D02*
X156050610Y-86000000D01*
X138000000Y-96190000D02*
X138000000Y-88000000D01*
X128375000Y-101735000D02*
X132455000Y-101735000D01*
X156050610Y-86000000D02*
X162000000Y-91949390D01*
X162000000Y-91949390D02*
X162000000Y-99000000D01*
X132455000Y-101735000D02*
X133190000Y-101000000D01*
%TO.N,Capteur_Autre_1*%
X135284874Y-109000000D02*
X146000000Y-98284874D01*
X133380000Y-109000000D02*
X135284874Y-109000000D01*
X146000000Y-98284874D02*
X146000000Y-94000000D01*
X133115000Y-108735000D02*
X133380000Y-109000000D01*
X128375000Y-108735000D02*
X133115000Y-108735000D01*
%TO.N,Capteur_Autre_2*%
X132925000Y-115735000D02*
X133190000Y-116000000D01*
X128375000Y-115735000D02*
X132925000Y-115735000D01*
%TO.N,Net-(J14-Pin_6)*%
X160700000Y-100700000D02*
X162704163Y-100700000D01*
X159000000Y-99000000D02*
X160700000Y-100700000D01*
X163700000Y-99704163D02*
X163700000Y-98300000D01*
X162704163Y-100700000D02*
X163700000Y-99704163D01*
X164000000Y-98000000D02*
X168000000Y-98000000D01*
X163700000Y-98300000D02*
X164000000Y-98000000D01*
%TD*%
M02*
