<svg version="1.1" id="Layer_1" xmlns="http://www.w3.org/2000/svg" xmlns:xlink="http://www.w3.org/1999/xlink" x="0px" y="0px"
	 width="100%" viewBox="0 0 800 800"  xml:space="preserve">
<path fill="#030303" opacity="1.000000" stroke="none" 
	d="
M485.999542,590.698486 
	C422.678314,590.720886 359.856995,590.772644 297.035767,590.736206 
	C284.212280,590.728760 271.453369,590.500488 259.102142,585.928528 
	C231.454025,575.693970 211.581833,548.204590 211.313385,518.897156 
	C211.278763,515.117920 210.420563,513.711304 206.275131,513.788391 
	C192.450424,514.045593 178.609665,514.094360 164.788727,513.719238 
	C150.481552,513.330811 138.893219,501.829529 137.913376,487.733124 
	C136.951172,473.890594 146.495163,461.133209 159.966110,458.528412 
	C162.880646,457.964844 165.930084,457.967316 168.919205,457.944000 
	C181.082687,457.849152 193.246979,457.863190 205.410675,457.789368 
	C207.187073,457.778595 208.961899,457.509705 211.221161,457.319519 
	C211.221161,448.572449 211.162018,440.263672 211.251160,431.956512 
	C211.285355,428.769562 209.401611,428.647247 207.002563,428.658325 
	C194.672440,428.715332 182.341568,428.742401 170.011658,428.667816 
	C163.490601,428.628387 157.165634,428.012390 151.313400,424.395874 
	C141.282974,418.197418 135.828720,406.054352 138.523743,394.784973 
	C141.560211,382.087830 151.308411,373.299408 163.675385,372.906311 
	C177.159714,372.477692 190.662231,372.619141 204.156860,372.517731 
	C206.279770,372.501770 208.402893,372.515503 210.846756,372.515503 
	C210.846756,362.625641 210.846756,353.378937 210.846756,343.517578 
	C208.859222,343.425262 206.934372,343.267395 205.008774,343.257446 
	C191.679733,343.188354 178.343002,343.412598 165.023483,343.029541 
	C151.092255,342.628906 140.968964,333.592712 138.238602,319.875854 
	C135.918961,308.222351 142.487152,295.108063 154.025955,289.840637 
	C157.811874,288.112396 162.394791,287.602722 166.636734,287.499176 
	C179.625488,287.182068 192.627686,287.193359 205.620239,287.381561 
	C209.832947,287.442566 211.307419,286.342957 211.381668,281.828033 
	C211.991653,244.727921 241.883514,213.419006 278.856689,210.924408 
	C285.003754,210.509659 291.174286,210.246216 297.334015,210.245651 
	C368.653656,210.239075 439.973419,210.385742 511.292847,210.277893 
	C530.482544,210.248871 548.278503,213.990784 563.551331,226.376816 
	C581.419800,240.867813 590.531250,259.798187 591.665649,282.563507 
	C591.886841,287.003204 593.499817,287.624451 597.362000,287.547180 
	C610.519653,287.284088 623.689148,287.143951 636.845276,287.404449 
	C650.798157,287.680634 661.843628,297.468079 663.933228,310.784973 
	C665.980469,323.831879 658.637695,336.588593 645.985535,341.447266 
	C643.254028,342.496216 640.154968,342.990295 637.216064,343.028015 
	C623.555725,343.203461 609.892212,343.128784 596.229797,343.143219 
	C594.931763,343.144592 593.633789,343.143402 591.667053,343.143402 
	C591.667053,352.592072 591.554016,361.693878 591.877380,370.780121 
	C591.903748,371.523285 594.902100,372.745758 596.524475,372.753906 
	C608.853271,372.816071 621.183167,372.624939 633.512878,372.525085 
	C643.511230,372.444122 652.340942,375.179840 658.436401,383.654419 
	C664.997681,392.776550 666.082275,402.671356 661.272339,412.872314 
	C656.863647,422.222290 649.277710,427.709259 638.926758,427.982391 
	C623.455139,428.390717 607.964783,428.088440 591.781433,428.088440 
	C591.781433,437.776215 591.664307,446.849884 591.989502,455.907654 
	C592.017456,456.685974 594.973633,457.969574 596.579163,457.984497 
	C609.907166,458.108307 623.239868,457.808594 636.566223,457.994720 
	C649.281311,458.172333 657.846741,464.613403 662.417358,476.401886 
	C668.263306,491.479828 659.039795,509.089233 643.260132,512.760437 
	C640.048218,513.507690 636.666748,513.716553 633.353943,513.800659 
	C626.525757,513.973938 619.691223,513.905457 612.859253,513.918091 
	C606.043884,513.930664 599.228455,513.920837 592.532959,513.920837 
	C591.373535,521.159424 590.707275,528.407715 589.006409,535.404541 
	C581.429504,566.574524 553.130371,589.356873 520.981812,590.317383 
	C509.494171,590.660583 497.993988,590.582520 485.999542,590.698486 
M269.366821,319.500244 
	C269.393799,378.815369 269.718109,438.132690 269.284241,497.444458 
	C269.135223,517.812866 283.625427,532.953674 304.053162,532.482605 
	C336.360077,531.737732 368.695892,532.259888 401.019501,532.224915 
	C434.675079,532.188416 468.333923,532.390625 501.984924,531.972168 
	C520.513367,531.741699 532.501953,519.512329 533.071594,501.135284 
	C533.443115,489.149567 533.322449,477.146667 533.317261,465.151489 
	C533.293640,410.501373 533.376648,355.850555 533.107910,301.201508 
	C533.012878,281.863617 520.462463,269.138641 501.147583,269.064697 
	C434.171661,268.808197 367.193970,268.819946 300.217651,269.001373 
	C283.342285,269.047089 270.400757,282.102448 269.551788,299.013550 
	C269.226349,305.496094 269.410889,312.004181 269.366821,319.500244 
z"/>

<path fill="#0737FC" opacity="1.000000" stroke="none" 
	d="
M373.069336,478.304504 
	C365.922546,478.331787 359.263092,478.462433 352.607330,478.357635 
	C336.316284,478.101135 323.606781,466.615326 323.355865,450.393646 
	C322.833038,416.591949 322.991913,382.777527 323.110474,348.969177 
	C323.153442,336.714691 336.861237,322.867615 350.777771,323.007202 
	C375.924316,323.259399 401.076599,322.916534 426.226562,322.869476 
	C433.387848,322.856079 440.565399,323.347931 447.707916,323.015717 
	C467.474030,322.096405 478.603699,338.875549 478.280914,353.870026 
	C477.815033,375.513550 478.037964,397.172302 478.006073,418.824585 
	C477.993073,427.651886 478.095825,436.479279 478.122375,445.306671 
	C478.186096,466.500732 467.073914,477.851105 446.009460,477.982178 
	C423.858093,478.119995 401.706116,478.157867 379.554382,478.242584 
	C377.555664,478.250244 375.557007,478.280792 373.069336,478.304504 
M416.456207,366.052643 
	C403.459656,366.117615 390.459259,366.014832 377.468048,366.313141 
	C370.163086,366.480927 366.294189,370.091553 366.197937,376.978210 
	C365.981354,392.470703 365.934662,407.974060 366.285309,423.462433 
	C366.466522,431.466492 370.354645,434.847076 378.346191,434.910950 
	C392.676270,435.025574 407.007935,434.933655 421.338867,434.956573 
	C431.497803,434.972809 434.809662,431.879822 434.915009,421.547607 
	C435.045746,408.718231 435.056976,395.883362 434.835785,383.055725 
	C434.564301,367.311157 433.302887,366.207886 416.456207,366.052643 
z"/>


</svg>