M48
; DRILL file {KiCad 8.0.3} date 2025-01-28T15:42:45+0100
; FORMAT={-:-/ absolute / metric / decimal}
; #@! TF.CreationDate,2025-01-28T15:42:45+01:00
; #@! TF.GenerationSoftware,Kicad,Pcbnew,8.0.3
; #@! TF.FileFunction,Plated,1,2,PTH
FMAT,2
METRIC
; #@! TA.AperFunction,Plated,PTH,ComponentDrill
T1C0.800
; #@! TA.AperFunction,Plated,PTH,ViaDrill
T2C1.000
; #@! TA.AperFunction,Plated,PTH,ComponentDrill
T3C1.000
%
G90
G05
T1
X133.0Y-88.0
X133.19Y-101.0
X133.19Y-116.0
X133.38Y-95.0
X133.38Y-109.0
X140.62Y-88.0
X140.81Y-101.0
X140.81Y-116.0
X141.0Y-95.0
X141.0Y-109.0
X150.0Y-85.46
X150.0Y-88.0
X150.0Y-90.54
X150.0Y-93.08
X150.0Y-95.62
X150.0Y-98.16
X150.0Y-100.7
X150.0Y-103.24
X157.62Y-85.46
X157.62Y-88.0
X157.62Y-90.54
X157.62Y-93.08
X157.62Y-95.62
X157.62Y-98.16
X157.62Y-100.7
X157.62Y-103.24
X168.82Y-90.46
X168.82Y-93.0
X168.82Y-95.54
X168.82Y-98.08
X168.82Y-100.62
X168.82Y-103.16
X168.82Y-105.7
X168.82Y-108.24
X176.44Y-90.46
X176.44Y-93.0
X176.44Y-95.54
X176.44Y-98.08
X176.44Y-100.62
X176.44Y-103.16
X176.44Y-105.7
X176.44Y-108.24
X190.0Y-90.92
X190.0Y-93.46
X190.0Y-96.0
X190.0Y-98.54
X190.0Y-101.08
X190.0Y-103.62
X190.0Y-106.16
X190.0Y-108.7
X197.62Y-90.92
X197.62Y-93.46
X197.62Y-96.0
X197.62Y-98.54
X197.62Y-101.08
X197.62Y-103.62
X197.62Y-106.16
X197.62Y-108.7
T2
X152.185Y-43.13
X165.81Y-82.915
X171.137Y-105.259
X176.38Y-80.661
X180.856Y-97.724
X203.57Y-49.35
T3
X128.375Y-87.735
X128.375Y-90.275
X128.375Y-94.735
X128.375Y-97.275
X128.375Y-101.735
X128.375Y-104.275
X128.375Y-108.735
X128.375Y-111.275
X128.375Y-115.735
X128.375Y-118.275
X155.9Y-52.7
X155.9Y-78.0
X156.445Y-116.625
X158.44Y-52.7
X158.44Y-78.0
X158.985Y-116.625
X160.98Y-52.7
X160.98Y-78.0
X161.525Y-116.625
X163.52Y-47.35
X163.52Y-52.7
X163.52Y-78.0
X163.62Y-84.92
X163.62Y-87.46
X163.62Y-90.0
X163.62Y-92.54
X163.62Y-95.08
X163.62Y-97.62
X166.06Y-47.35
X166.06Y-52.7
X166.06Y-78.0
X166.445Y-116.625
X168.6Y-47.35
X168.6Y-52.7
X168.6Y-78.0
X168.985Y-116.625
X171.14Y-47.35
X171.14Y-52.7
X171.14Y-78.0
X171.525Y-116.625
X173.68Y-47.35
X173.68Y-52.7
X173.68Y-78.0
X176.22Y-47.35
X176.22Y-52.7
X176.22Y-78.0
X177.84Y-116.0
X178.76Y-47.35
X178.76Y-52.7
X178.76Y-78.0
X180.38Y-116.0
X181.3Y-47.35
X181.3Y-52.7
X181.3Y-78.0
X182.92Y-116.0
X183.84Y-47.35
X183.84Y-52.7
X183.84Y-78.0
X185.0Y-93.915
X185.0Y-96.455
X185.0Y-98.995
X185.0Y-101.535
X185.0Y-104.075
X185.46Y-116.0
X186.38Y-47.35
X186.38Y-52.7
X186.38Y-78.0
X188.0Y-116.0
X188.92Y-47.35
X188.92Y-52.7
X188.92Y-78.0
X190.54Y-116.0
X191.46Y-47.35
X191.46Y-52.7
X191.46Y-78.0
X194.0Y-47.35
X194.0Y-52.7
X194.0Y-78.0
X196.54Y-47.35
X196.54Y-52.7
X196.54Y-78.0
X199.08Y-52.7
X199.08Y-78.0
X201.62Y-52.7
X201.62Y-78.0
X201.76Y-45.35
X201.76Y-47.89
X204.0Y-93.46
X204.0Y-96.0
X204.0Y-98.54
X204.0Y-101.08
X204.0Y-103.62
M30
